<svg width="248" height="284" viewBox="0 0 248 284" fill="none" xmlns="http://www.w3.org/2000/svg">
<path d="M123.403 153.356C117.425 149.61 110.568 147.255 103.535 146.541C100.295 146.203 96.7408 146.303 94.1411 148.27C93.5886 148.683 93.0486 149.297 93.1742 149.986C93.2621 150.487 93.6891 150.851 94.0909 151.151C102.179 157.29 114.411 158.067 123.403 153.356Z" fill="#E0E0E0"/>
<path d="M122.9 152.793C118.404 149.297 113.883 145.764 110.065 141.53C106.26 137.295 103.158 132.272 102.015 126.684C101.676 124.993 101.563 123.063 102.656 121.723C112.891 129.703 120.916 140.001 122.9 152.793Z" fill="#E0E0E0"/>
<path d="M123.302 153.281C122.536 147.694 122.26 141.968 123.541 136.481C124.822 130.994 127.823 125.744 132.52 122.612C134.291 126.734 133.525 131.482 132.282 135.792C130.36 142.444 127.334 148.784 123.39 154.484" fill="#E0E0E0"/>
<path d="M133.324 171.196C127.233 171.936 121.933 175.13 117.387 179.239C112.841 183.349 109.613 188.874 108.27 194.849C114.235 194.486 119.309 190.277 122.976 185.579C126.643 180.868 129.192 175.707 133.223 171.297" fill="#E0E0E0"/>
<path d="M135.509 174.065C130.611 162.013 132.382 147.506 140.043 136.995C143.509 149.297 142.24 163.191 135.509 174.065Z" fill="#E0E0E0"/>
<path d="M148.746 189.801C143.22 189.462 137.606 190.765 132.809 193.521C128.012 196.278 124.056 200.462 121.582 205.398C121.243 206.075 120.954 206.926 121.393 207.528C121.783 208.054 122.536 208.104 123.189 208.054C128.539 207.703 133.286 204.496 137.205 200.838C141.123 197.18 144.526 192.958 148.859 189.788" fill="#E0E0E0"/>
<path d="M148.331 188.949C145.481 179.853 145.305 169.944 147.829 160.748C148.821 157.115 150.491 153.294 153.857 151.59C154.146 151.44 154.473 151.314 154.774 151.427C155.063 151.54 155.226 151.828 155.352 152.104C156.545 154.597 156.896 157.428 156.771 160.197C156.645 162.965 156.067 165.684 155.502 168.39C154.447 173.389 153.882 178.776 151.132 183.086C150.479 184.113 149.901 185.215 149.386 186.318C148.871 187.42 148.859 187.796 148.382 188.673" fill="#E0E0E0"/>
<path d="M183.395 194.16C180.795 184.301 183.558 172.349 189.787 164.268C190.252 163.667 190.855 163.041 191.608 163.103C192.751 163.203 193.052 164.732 193.002 165.884C192.538 175.957 189.172 185.879 183.395 194.16Z" fill="#E0E0E0"/>
<path d="M186.56 196.315C198.566 199.435 212.342 196.403 222.326 189.061C216.411 186.067 209.429 185.215 202.961 186.694C196.494 188.159 190.578 191.053 186.56 196.315Z" fill="#E0E0E0"/>
<path d="M189.222 189.751C195.941 178.813 208.839 171.672 221.686 171.021C220.204 176.233 215.909 180.279 211.074 182.735C206.226 185.178 200.826 186.243 195.489 187.282C193.404 187.683 190.566 188.122 189.222 189.751Z" fill="#E0E0E0"/>
<path d="M184.061 157.904C185.882 151.678 187.715 145.401 188.217 138.937C188.72 132.472 187.79 125.719 184.437 120.182C178.158 132.309 177.518 146.478 183.885 158.556" fill="#E0E0E0"/>
<path d="M205.209 147.243C212.556 133.925 227.538 123.289 242.709 121.798C236.857 136.318 220.895 147.556 205.209 147.243Z" fill="#E0E0E0"/>
<path d="M200.588 149.849C211.539 151.515 220.87 158.493 231.118 162.727C233.303 163.629 235.664 164.356 238.012 164.043C240.361 163.73 242.684 162.164 243.211 159.859C243.651 157.942 242.772 155.912 241.403 154.509C240.022 153.106 238.213 152.229 236.392 151.477C225.24 146.842 213.284 146.729 201.542 149.535" fill="#E0E0E0"/>
<path d="M194.246 157.516C196.72 158.23 197.574 159.508 199.533 161.174C206.201 166.837 214.189 170.933 222.678 173.038C223.557 173.251 224.725 173.339 225.165 172.549C225.542 171.848 225.064 171.008 224.562 170.395C221.008 165.947 215.922 162.915 210.584 160.936C205.247 158.956 200.613 156.564 194.233 157.077" fill="#E0E0E0"/>
<path d="M187.1 111.224C196.004 119.518 208.55 123.778 220.681 122.625C221.234 122.575 221.837 122.487 222.214 122.074C223.055 121.159 222.05 119.744 221.058 118.979C211.174 111.3 199.219 108.105 187.1 111.224Z" fill="#E0E0E0"/>
<path d="M195.577 108.13C207.357 99.3227 223.494 96.6668 237.485 101.227C232.21 106.414 224.888 109.207 217.517 109.972C210.145 110.736 202.76 109.922 195.577 108.13Z" fill="#E0E0E0"/>
<path d="M192.211 86.8573C191.244 77.0227 191.872 69.2678 191.181 59.3832C191.131 58.5939 190.955 57.6417 190.214 57.3661C189.184 56.9652 188.331 58.2306 187.991 59.2829C185.053 68.3909 186.66 78.8268 192.199 86.6443" fill="#E0E0E0"/>
<path d="M191.495 87.9347C198.176 83.813 203.187 78.4259 207.821 72.1117C211.049 67.7144 213.762 62.44 213.033 57.0404C208.5 56.9527 204.205 59.4458 201.253 62.8785C198.302 66.3112 196.556 70.5958 195.25 74.9305C193.944 79.2402 193.027 83.6877 191.495 87.9347Z" fill="#E0E0E0"/>
<path d="M207.533 83.4997C222.188 78.0876 235.865 70.0446 247.707 59.8718C242.91 57.9424 237.409 59.095 232.612 61.0243C221.648 65.4342 212.694 72.8885 207.319 83.387" fill="#E0E0E0"/>
<path d="M196.004 93.3218C203.426 94.1361 210.948 94.6623 218.308 93.4345C225.541 92.2318 232.373 89.3629 239.13 86.5315C239.695 86.2935 240.298 86.0179 240.549 85.4541C240.813 84.8528 240.536 84.1136 240.047 83.6751C239.557 83.2367 238.904 83.0237 238.276 82.8483C230.929 80.7937 223.005 81.7583 215.771 84.1888C208.537 86.6192 202.61 89.5007 196.004 93.3218Z" fill="#E0E0E0"/>
<path d="M153.656 111.563C148.595 101.377 148.922 89.4882 153.292 78.9771C156.369 83.6501 156.746 89.6135 156.181 95.1759C155.615 100.738 153.92 106.476 153.807 112.064" fill="#E0E0E0"/>
<path d="M133.437 101.39C120.803 101.152 108.169 106.514 99.5916 115.772C105.896 116.762 112.389 115.133 118.128 112.339C123.867 109.546 128.966 105.624 134.015 101.728" fill="#E0E0E0"/>
<path d="M119.849 96.8547C113.67 96.3536 107.717 95.5894 101.777 97.4059C95.8366 99.2225 90.4238 103.344 88 109.057C93.7769 109.708 99.6419 108.255 104.942 105.862C110.254 103.47 115.064 100.15 119.849 96.8547Z" fill="#E0E0E0"/>
<path d="M139.98 97.0551C134.416 93.422 128.715 89.7262 122.235 88.2103C115.767 86.7069 108.257 87.8219 103.748 92.6828C108.985 95.7522 115.353 96.1155 121.418 96.103C127.497 96.103 134.944 96.0278 140.671 98.0574" fill="#E0E0E0"/>
<path d="M140.005 97.3558C130.498 88.0474 126.894 71.3224 130.724 58.5939C138.197 69.9068 141.537 83.8881 140.005 97.3558Z" fill="#E0E0E0"/>
<path d="M166.139 70.9717C167.935 66.8123 169.191 62.4526 170.799 58.2181C172.406 53.9836 174.403 49.8242 177.442 46.4667C180.481 43.1092 184.688 40.6036 189.21 40.3781C186.371 53.1943 177.844 64.6324 166.366 71.0343" fill="#E0E0E0"/>
<path d="M161.417 76.4715C158.454 72.3999 155.025 66.875 151.006 63.8306C146.988 60.7863 141.751 58.9447 136.84 60.1223C141.826 69.0173 151.258 75.2939 161.417 76.4715Z" fill="#E0E0E0"/>
<path d="M162.359 71.3099C160.413 66.3863 158.454 61.4002 157.675 56.1634C156.896 50.9267 157.361 45.3266 160.049 40.7539C165.26 50.5884 166.943 61.1496 162.623 71.4227" fill="#E0E0E0"/>
<path d="M166.19 40.7539C169.141 30.9945 178.095 23.8159 187.765 20.521C188.983 20.1076 190.277 19.7568 191.545 19.9572C192.814 20.1577 194.07 21.0221 194.333 22.275C194.685 23.9287 193.316 25.4195 192.023 26.522C184.5 32.9489 175.646 37.8223 166.19 40.7539Z" fill="#E0E0E0"/>
<path d="M166.303 32.786C166.679 26.4969 167.069 20.1201 169.116 14.1567C171.163 8.19338 175.119 2.60584 180.871 0C181.85 6.35174 179.037 12.6659 175.646 18.1407C172.255 23.6029 168.174 28.7645 166.139 34.8657" fill="#E0E0E0"/>
<path d="M166.14 37.1082C163.691 30.0048 163.439 20.972 159.182 14.7832C156.193 10.4484 151.421 7.50433 148.859 2.91905C147.151 7.20366 147.678 12.1397 149.462 16.3868C151.245 20.6338 154.196 24.292 157.361 27.662C160.501 31.0196 163.213 33.5502 166.14 37.1082Z" fill="#E0E0E0"/>
<path d="M166.19 246.453C166.001 246.453 165.838 199.034 165.826 140.553C165.813 82.0465 165.951 34.6402 166.14 34.6402C166.328 34.6402 166.491 82.0465 166.504 140.553C166.529 199.021 166.378 246.453 166.19 246.453Z" fill="#E0E0E0"/>
<path d="M207.733 104.397C207.746 104.447 207.106 104.672 205.95 105.061C204.669 105.499 203.011 106.05 201.027 106.714C196.883 108.117 191.181 110.16 185.002 112.69C178.874 115.309 173.109 117.438 169.819 120.282C168.174 121.685 167.232 123.201 166.767 124.304C166.29 125.419 166.215 126.095 166.152 126.083C166.127 126.083 166.139 125.907 166.177 125.582C166.227 125.256 166.315 124.78 166.529 124.204C166.931 123.038 167.847 121.41 169.505 119.906C171.163 118.403 173.461 117.05 176.098 115.822C178.736 114.594 181.649 113.317 184.751 112.039C190.955 109.508 196.694 107.529 200.889 106.238C202.986 105.587 204.694 105.111 205.875 104.785C207.055 104.509 207.721 104.359 207.733 104.397Z" fill="#E0E0E0"/>
<path d="M221.347 71.0343C221.36 71.0468 221.184 71.2347 220.845 71.573C220.443 71.9488 219.94 72.4249 219.325 73.0012C217.906 74.279 215.985 76.033 213.636 78.1627C208.713 82.5351 202.057 88.4483 194.685 95.0005C187.288 101.565 180.896 107.842 176.463 112.577C174.24 114.933 172.494 116.887 171.301 118.253C170.748 118.892 170.284 119.405 169.92 119.819C169.606 120.169 169.43 120.357 169.405 120.345C169.392 120.332 169.53 120.119 169.807 119.743C170.095 119.368 170.51 118.791 171.088 118.09C172.218 116.674 173.913 114.657 176.098 112.252C180.444 107.428 186.811 101.077 194.22 94.4994C201.643 87.9472 208.399 82.059 213.31 77.812C215.721 75.7448 217.692 74.0535 219.149 72.8133C219.802 72.2746 220.33 71.8361 220.757 71.4853C221.133 71.1721 221.334 71.0217 221.347 71.0343Z" fill="#E0E0E0"/>
<path d="M186.685 101.678C186.497 101.59 188.042 98.0323 189.574 93.5348C191.131 89.0372 191.859 85.2286 192.06 85.2662C192.236 85.2787 191.797 89.2 190.227 93.7603C189.448 96.0404 188.594 98.0323 187.929 99.4605C187.25 100.864 186.773 101.716 186.685 101.678Z" fill="#E0E0E0"/>
<path d="M166.24 130.38C166.202 130.405 165.8 129.941 165.097 129.064C164.318 128.075 163.339 126.822 162.171 125.331C159.722 122.161 156.331 117.802 152.526 113.016C148.721 108.243 145.229 103.946 142.693 100.851C141.5 99.3728 140.495 98.1451 139.704 97.1679C139 96.2909 138.636 95.7898 138.674 95.7648C138.712 95.7397 139.151 96.1782 139.905 96.9925C140.671 97.8193 141.738 99.0221 143.057 100.538C145.682 103.557 149.248 107.804 153.053 112.59C156.859 117.376 160.199 121.798 162.548 125.03C163.728 126.646 164.67 127.974 165.298 128.902C165.939 129.829 166.278 130.355 166.24 130.38Z" fill="#E0E0E0"/>
<path d="M157.122 118.716C157.009 118.842 154.586 115.96 153.305 111.588C152.363 108.506 152.325 105.687 152.438 104.409L152.74 104.434C152.601 104.985 152.501 105.274 152.451 105.261C152.4 105.249 152.388 104.948 152.438 104.384L152.74 104.409C152.853 105.687 153.041 108.406 153.958 111.4C155.201 115.622 157.311 118.591 157.122 118.716Z" fill="#E0E0E0"/>
<path d="M145.368 103.958C145.28 104.058 144.501 103.069 142.705 102.417C140.922 101.728 138.247 101.578 135.308 101.828C132.369 102.041 129.745 102.568 127.861 103.031C125.977 103.495 124.834 103.858 124.797 103.77C124.772 103.695 125.864 103.156 127.735 102.568C129.607 101.979 132.269 101.377 135.258 101.152C138.234 100.901 141.047 101.127 142.893 101.979C144.752 102.793 145.43 103.946 145.368 103.958Z" fill="#E0E0E0"/>
<path d="M142.58 100.388C142.529 100.5 141.022 99.7612 138.498 98.9093C135.974 98.0449 132.382 97.1303 128.313 96.8171C124.244 96.5164 120.552 96.8672 117.927 97.3433C115.29 97.8193 113.707 98.308 113.67 98.1952C113.657 98.1451 114.034 97.9948 114.75 97.7317C115.453 97.4686 116.508 97.1679 117.827 96.8672C120.464 96.2659 124.219 95.8274 128.363 96.1281C132.495 96.4538 136.15 97.456 138.661 98.4458C139.917 98.9344 140.922 99.3979 141.575 99.7612C142.253 100.125 142.605 100.338 142.58 100.388Z" fill="#E0E0E0"/>
<path d="M166.14 85.2537C165.951 85.3038 164.62 80.6809 163.163 74.9431C161.706 69.1927 160.664 64.5072 160.852 64.457C161.041 64.4069 162.372 69.0298 163.829 74.7677C165.298 80.518 166.328 85.2161 166.14 85.2537Z" fill="#E0E0E0"/>
<path d="M166.328 85.2537C166.127 85.3163 165.26 82.2344 163.025 79.0773C160.852 75.8576 158.064 74.2415 158.165 74.0786C158.203 74.0035 158.969 74.2916 160.036 75.0433C161.104 75.7824 162.435 77.0478 163.578 78.689C165.926 81.9713 166.504 85.2411 166.328 85.2537Z" fill="#E0E0E0"/>
<path d="M166.19 221.171C166.114 221.183 165.976 220.031 165.436 218.014C164.909 215.997 163.904 213.14 162.259 209.808C158.969 203.118 153.003 194.624 145.405 186.117C141.638 181.833 137.996 177.786 134.894 173.915C131.792 170.044 129.242 166.361 127.371 163.103C125.5 159.846 124.282 157.052 123.578 155.073C123.227 154.083 122.976 153.306 122.838 152.78C122.687 152.254 122.624 151.966 122.637 151.966C122.699 151.941 123.038 153.056 123.83 154.985C124.608 156.914 125.889 159.658 127.798 162.865C129.694 166.072 132.269 169.706 135.384 173.527C138.498 177.36 142.153 181.382 145.92 185.679C153.531 194.198 159.496 202.805 162.698 209.608C164.306 213.003 165.248 215.909 165.7 217.964C165.926 218.991 166.064 219.793 166.127 220.344C166.19 220.883 166.215 221.171 166.19 221.171Z" fill="#E0E0E0"/>
<path d="M203.727 178.876C203.752 178.926 203.037 179.29 201.756 179.979C200.5 180.68 198.704 181.77 196.657 183.349C194.61 184.915 192.312 186.969 189.951 189.45C187.602 191.93 185.178 194.812 182.704 197.894C177.756 204.083 173.135 209.557 170.372 213.93C168.965 216.097 167.948 217.926 167.27 219.204C166.592 220.482 166.24 221.209 166.19 221.183C166.165 221.171 166.227 220.983 166.378 220.632C166.529 220.281 166.717 219.755 167.044 219.091C167.646 217.763 168.601 215.884 169.97 213.667C172.657 209.194 177.241 203.644 182.177 197.455C184.651 194.361 187.112 191.479 189.498 189.011C191.897 186.543 194.258 184.501 196.368 182.96C198.478 181.419 200.324 180.392 201.643 179.753C202.296 179.427 202.823 179.227 203.175 179.077C203.526 178.914 203.715 178.851 203.727 178.876Z" fill="#E0E0E0"/>
<path d="M204.468 192.594C204.481 192.695 202.886 192.883 200.311 193.196C197.749 193.521 194.183 193.947 190.453 195.138C186.736 196.353 183.634 198.194 181.624 199.76C179.59 201.326 178.635 202.629 178.535 202.554C178.497 202.529 178.698 202.178 179.15 201.602C179.59 201.026 180.318 200.249 181.323 199.385C183.307 197.681 186.434 195.726 190.252 194.486C194.082 193.283 197.687 192.933 200.274 192.72C202.848 192.532 204.456 192.507 204.468 192.594Z" fill="#E0E0E0"/>
<path d="M179.74 201.038C179.527 200.913 181.398 198.057 182.855 194.223C184.224 190.352 184.538 186.944 184.789 186.982C184.877 186.994 184.877 187.846 184.714 189.212C184.55 190.577 184.224 192.469 183.495 194.449C182.767 196.441 181.813 198.094 181.084 199.259C180.343 200.424 179.816 201.088 179.74 201.038Z" fill="#E0E0E0"/>
<path d="M215.884 142.031C215.897 142.056 215.658 142.169 215.218 142.382C214.704 142.62 214.05 142.908 213.259 143.271C212.405 143.635 211.363 144.098 210.195 144.712C209.014 145.313 207.646 145.94 206.226 146.792C205.498 147.205 204.745 147.631 203.953 148.082C203.162 148.533 202.384 149.072 201.555 149.585C199.884 150.6 198.202 151.841 196.418 153.118C192.914 155.762 189.235 158.906 185.693 162.527C182.189 166.185 179.163 169.956 176.638 173.539C175.42 175.368 174.227 177.085 173.273 178.776C172.783 179.615 172.268 180.417 171.854 181.219C171.439 182.021 171.025 182.785 170.648 183.524C169.844 184.977 169.267 186.368 168.701 187.558C168.124 188.748 167.697 189.801 167.358 190.665C167.031 191.467 166.755 192.118 166.541 192.644C166.34 193.096 166.227 193.334 166.215 193.321C166.19 193.308 166.265 193.07 166.416 192.594C166.604 192.056 166.83 191.392 167.119 190.565C167.42 189.675 167.81 188.61 168.362 187.408C168.902 186.193 169.442 184.789 170.234 183.311C170.61 182.559 171 181.783 171.414 180.968C171.829 180.154 172.331 179.352 172.808 178.5C173.75 176.771 174.931 175.043 176.136 173.188C178.66 169.568 181.687 165.747 185.216 162.063C188.783 158.418 192.513 155.273 196.054 152.63C197.862 151.364 199.57 150.124 201.266 149.122C202.107 148.608 202.898 148.082 203.69 147.644C204.493 147.205 205.259 146.792 205.988 146.391C207.445 145.564 208.826 144.963 210.032 144.386C211.225 143.797 212.28 143.371 213.159 143.046C213.975 142.733 214.641 142.482 215.168 142.282C215.633 142.094 215.884 142.018 215.884 142.031Z" fill="#E0E0E0"/>
<path d="M186.183 161.888C186.12 161.876 186.459 160.723 187.816 159.458C189.147 158.192 191.571 157.027 194.396 156.939C197.209 156.864 199.658 157.654 201.329 158.292C203.011 158.944 203.978 159.483 203.953 159.558C203.916 159.658 202.873 159.282 201.178 158.743C199.495 158.23 197.096 157.553 194.434 157.616C191.771 157.704 189.473 158.718 188.142 159.821C186.773 160.923 186.283 161.963 186.183 161.888Z" fill="#E0E0E0"/>
<path d="M181.737 166.461C181.549 166.361 183.219 163.905 183.608 160.397C184.048 156.889 182.981 154.121 183.194 154.07C183.269 154.045 183.646 154.684 183.96 155.837C184.287 156.989 184.5 158.656 184.287 160.485C184.073 162.314 183.47 163.892 182.893 164.932C182.315 165.972 181.8 166.511 181.737 166.461Z" fill="#E0E0E0"/>
<path d="M133.362 227.961C134.391 246.089 139.854 264.518 148.281 283.147H184.902C192.927 264.694 198.026 246.302 198.93 227.961H133.362Z" fill="#E0E0E0"/>
<path d="M192.99 257.289C192.99 257.477 180.933 257.628 166.064 257.628C151.195 257.628 139.139 257.477 139.139 257.289C139.139 257.102 151.195 256.951 166.064 256.951C180.933 256.939 192.99 257.102 192.99 257.289Z" fill="#FAFAFA"/>
<path d="M192.173 263.854C192.173 264.042 180.871 264.192 166.931 264.192C152.991 264.192 141.688 264.042 141.688 263.854C141.688 263.666 152.991 263.516 166.931 263.516C180.871 263.516 192.173 263.666 192.173 263.854Z" fill="#FAFAFA"/>
<path d="M148.871 239.863C149.06 239.863 149.211 243.634 149.211 248.282C149.211 252.93 149.06 256.701 148.871 256.701C148.683 256.701 148.532 252.93 148.532 248.282C148.532 243.634 148.683 239.863 148.871 239.863Z" fill="#FAFAFA"/>
<path d="M168.488 239.863C168.676 239.863 168.827 243.759 168.827 248.57C168.827 253.381 168.676 257.277 168.488 257.277C168.3 257.277 168.149 253.381 168.149 248.57C168.149 243.759 168.3 239.863 168.488 239.863Z" fill="#FAFAFA"/>
<path d="M186.911 239.713C187.1 239.713 187.25 243.696 187.25 248.595C187.25 253.506 187.1 257.477 186.911 257.477C186.723 257.477 186.572 253.493 186.572 248.595C186.56 243.696 186.723 239.713 186.911 239.713Z" fill="#FAFAFA"/>
<path d="M197.762 239.863C197.762 240.051 183.621 240.201 166.19 240.201C148.746 240.201 134.605 240.051 134.605 239.863C134.605 239.675 148.746 239.525 166.19 239.525C183.621 239.525 197.762 239.675 197.762 239.863Z" fill="#FAFAFA"/>
<path d="M97.5398 152.081C121.689 137.257 129.219 105.71 114.359 81.6197C99.4983 57.5292 67.8749 50.0174 43.7258 64.8417C19.5767 79.666 12.0467 111.213 26.907 135.303C41.7673 159.394 73.3907 166.905 97.5398 152.081Z" fill="#FF725E"/>
<g opacity="0.1">
<path d="M52.1686 60.6401C25.7203 70.8003 12.5463 100.417 22.7188 126.801C22.7188 126.801 22.7188 126.813 22.7313 126.813C22.7313 126.813 56.9786 115.4 59.867 98.763C62.7555 82.1257 52.1686 60.6401 52.1686 60.6401Z" fill="white"/>
</g>
<path d="M96.2803 131.242C111.484 116.076 111.484 91.4856 96.2803 76.319C81.0767 61.1523 56.4268 61.1523 41.2232 76.319C26.0197 91.4856 26.0197 116.076 41.2232 131.242C56.4268 146.409 81.0767 146.409 96.2803 131.242Z" fill="#FF725E"/>
<g opacity="0.2">
<path d="M96.2803 131.242C111.484 116.076 111.484 91.4856 96.2803 76.319C81.0767 61.1523 56.4268 61.1523 41.2232 76.319C26.0197 91.4856 26.0197 116.076 41.2232 131.242C56.4268 146.409 81.0767 146.409 96.2803 131.242Z" fill="black"/>
</g>
<path d="M107.59 95.1049C115.238 114.899 105.367 137.137 85.5242 144.766C65.6817 152.396 43.3902 142.549 35.742 122.754C28.0939 102.96 37.9649 80.7226 57.8075 73.093C57.82 73.093 57.8325 73.0805 57.8451 73.0805C77.6751 65.4759 99.9415 75.3355 107.59 95.1049Z" fill="#FF725E"/>
<g opacity="0.2">
<path d="M107.59 95.1049C115.238 114.899 105.367 137.137 85.5242 144.766C65.6817 152.396 43.3902 142.549 35.742 122.754C28.0939 102.96 37.9649 80.7226 57.8075 73.093C57.82 73.093 57.8325 73.0805 57.8451 73.0805C77.6751 65.4759 99.9415 75.3355 107.59 95.1049Z" fill="white"/>
</g>
<path d="M71.8856 105.24L68.3566 96.082C70.1148 95.6436 71.9232 95.4431 73.7442 95.4807C74.7112 95.5934 75.6531 95.7814 76.5825 96.057V95.7187L76.7332 91.8726V90.9956L74.4349 89.9057L73.7694 90.5571C71.2953 90.2815 68.7961 90.4945 66.41 91.2086L64.4508 86.1598L62.3913 85.4958L62.881 86.7611L60.7335 87.6005L62.7053 92.737C55.8608 96.1447 54.0524 101.544 55.8357 106.117C58.2846 112.431 64.3252 111.993 69.8636 111.266L73.3675 120.349C69.9515 121.339 66.3347 121.339 62.9187 120.349L62.6424 125.724C65.8072 126.864 70.6925 126.663 75.2513 125.222L76.7206 129.031L74.9499 129.745L77.1852 130.259L80.9277 128.793L78.9685 123.694C85.8381 120.224 87.7094 114.887 85.926 110.276C83.5399 104.012 77.4113 104.539 71.8856 105.24ZM67.7915 105.729C64.8528 105.967 62.5043 105.729 61.6503 103.536C60.7963 101.344 61.6503 99.3644 64.6644 97.6606L67.7915 105.729ZM77.1099 118.795L74.008 110.752C77.0346 110.477 79.4583 110.752 80.3123 112.97C81.0533 114.937 80.237 117.016 77.1099 118.795Z" fill="#FF725E"/>
<g opacity="0.3">
<path d="M71.8856 105.24L68.3566 96.082C70.1148 95.6436 71.9232 95.4431 73.7442 95.4807C74.7112 95.5934 75.6531 95.7814 76.5825 96.057V95.7187L76.7332 91.8726V90.9956L74.4349 89.9057L73.7694 90.5571C71.2953 90.2815 68.7961 90.4945 66.41 91.2086L64.4508 86.1598L62.3913 85.4958L62.881 86.7611L60.7335 87.6005L62.7053 92.737C55.8608 96.1447 54.0524 101.544 55.8357 106.117C58.2846 112.431 64.3252 111.993 69.8636 111.266L73.3675 120.349C69.9515 121.339 66.3347 121.339 62.9187 120.349L62.6424 125.724C65.8072 126.864 70.6925 126.663 75.2513 125.222L76.7206 129.031L74.9499 129.745L77.1852 130.259L80.9277 128.793L78.9685 123.694C85.8381 120.224 87.7094 114.887 85.926 110.276C83.5399 104.012 77.4113 104.539 71.8856 105.24ZM67.7915 105.729C64.8528 105.967 62.5043 105.729 61.6503 103.536C60.7963 101.344 61.6503 99.3644 64.6644 97.6606L67.7915 105.729ZM77.1099 118.795L74.008 110.752C77.0346 110.477 79.4583 110.752 80.3123 112.97C81.0533 114.937 80.237 117.016 77.1099 118.795Z" fill="black"/>
</g>
<path d="M76.9844 123.08L78.9561 128.179L75.2136 129.645L73.2671 124.596C68.6957 126.062 63.7979 126.237 60.6331 125.11L60.9094 119.735C64.3253 120.725 67.9422 120.725 71.3581 119.735L67.8543 110.652C62.316 111.354 56.2754 111.792 53.839 105.478C52.0431 100.843 53.8389 95.5058 60.6959 92.0981L58.7242 86.9616L62.4667 85.4958L64.4133 90.5446C67.7288 89.4296 71.2703 89.1665 74.7113 89.7679L74.6108 95.0798C71.8354 94.6288 68.9972 94.7541 66.2845 95.4431L69.826 104.639C75.3644 103.925 81.4804 103.386 83.9167 109.725C85.7503 114.298 83.8916 119.622 76.9844 123.08ZM65.7571 105.065L62.6425 96.959C59.5908 98.7004 58.8624 100.868 59.7038 102.835C60.5327 104.802 62.8184 105.315 65.7571 105.065ZM78.2779 112.318C77.4114 110.088 75.0127 109.813 71.9735 110.088L75.0755 118.131C78.2151 116.353 79.0314 114.273 78.2779 112.318Z" fill="#FF725E"/>
<path d="M58.4479 108.021C57.9079 107.934 57.4056 107.708 56.9786 107.37C55.8985 106.631 55.0696 105.566 54.6426 104.326C54.2156 103.073 54.2156 101.732 54.6426 100.479C54.7557 99.9282 55.0194 99.427 55.3962 99.0136C55.3962 99.0136 55.145 99.5774 54.9064 100.479C54.5924 101.682 54.6301 102.947 55.0194 104.125C55.4338 105.29 56.1873 106.305 57.1669 107.057C57.8953 107.733 58.4605 107.959 58.4479 108.021Z" fill="white"/>
<path d="M61.2108 90.9706C61.1104 90.9706 60.7712 90.3692 60.4573 89.5048C60.1433 88.6404 59.9549 88.039 60.0554 87.9513C60.1559 87.8636 60.4824 88.5527 60.809 89.4171C61.1355 90.2815 61.3113 90.9455 61.2108 90.9706Z" fill="white"/>
<path d="M129.366 156.33H20.6843V178.191H129.366V156.33Z" fill="#FF725E"/>
<path d="M122.384 156.693C122.132 156.693 121.906 161.454 121.906 167.292C121.906 173.13 122.132 177.89 122.384 177.89C122.635 177.89 122.861 173.142 122.861 167.292C122.861 161.441 122.647 156.693 122.384 156.693Z" fill="#263238"/>
<path d="M112.312 156.693C112.048 156.693 111.834 161.454 111.834 167.292C111.834 173.13 112.035 177.89 112.312 177.89C112.575 177.89 112.789 173.142 112.789 167.292C112.789 161.441 112.563 156.693 112.312 156.693Z" fill="#263238"/>
<path d="M102.353 156.693C102.089 156.693 101.875 161.454 101.875 167.292C101.875 173.13 102.076 177.89 102.353 177.89C102.616 177.89 102.83 173.142 102.83 167.292C102.83 161.441 102.616 156.693 102.353 156.693Z" fill="#263238"/>
<path d="M92.444 156.693C92.1802 156.693 91.9667 161.454 91.9667 167.292C91.9667 173.13 92.1677 177.89 92.444 177.89C92.7077 177.89 92.9212 173.142 92.9212 167.292C92.9212 161.441 92.7203 156.693 92.444 156.693Z" fill="#263238"/>
<path d="M82.5352 156.693C82.2715 156.693 82.058 161.454 82.058 167.292C82.058 173.13 82.2589 177.89 82.5352 177.89C82.7989 177.89 83.0124 173.142 83.0124 167.292C83.0124 161.441 82.7989 156.693 82.5352 156.693Z" fill="#263238"/>
<path d="M72.6265 156.693C72.3628 156.693 72.1493 161.454 72.1493 167.292C72.1493 173.13 72.3502 177.89 72.6265 177.89C72.8903 177.89 73.1038 173.142 73.1038 167.292C73.1038 161.441 72.9028 156.693 72.6265 156.693Z" fill="#263238"/>
<path d="M62.7303 156.693C62.4666 156.693 62.2531 161.454 62.2531 167.292C62.2531 173.13 62.4541 177.89 62.7303 177.89C63.0066 177.89 63.2076 173.142 63.2076 167.292C63.2076 161.441 62.9941 156.693 62.7303 156.693Z" fill="#263238"/>
<path d="M52.8216 156.693C52.5579 156.693 52.3445 161.454 52.3445 167.292C52.3445 173.13 52.5453 177.89 52.8216 177.89C53.0854 177.89 53.2989 173.142 53.2989 167.292C53.2989 161.441 53.0854 156.693 52.8216 156.693Z" fill="#263238"/>
<path d="M42.913 156.693C42.6492 156.693 42.4357 161.454 42.4357 167.292C42.4357 173.13 42.6367 177.89 42.913 177.89C43.1767 177.89 43.3902 173.142 43.3902 167.292C43.3902 161.441 43.1767 156.693 42.913 156.693Z" fill="#263238"/>
<path d="M33.0042 156.693C32.7405 156.693 32.527 161.454 32.527 167.292C32.527 173.13 32.728 177.89 33.0042 177.89C33.268 177.89 33.4815 173.142 33.4815 167.292C33.4815 161.441 33.268 156.693 33.0042 156.693Z" fill="#263238"/>
<path d="M23.1081 156.693C22.8443 156.693 22.6308 161.454 22.6308 167.292C22.6308 173.13 22.8318 177.89 23.1081 177.89C23.3718 177.89 23.5853 173.142 23.5853 167.292C23.5853 161.441 23.3592 156.693 23.1081 156.693Z" fill="#263238"/>
<g opacity="0.3">
<path d="M127.621 156.355C92.7077 161.015 57.3302 161.015 22.4299 156.355H127.621Z" fill="black"/>
</g>
<path d="M20.5964 156.392C20.5964 156.655 44.8847 156.868 74.8369 156.868C104.789 156.868 129.09 156.668 129.09 156.392C129.09 156.129 104.802 155.916 74.8369 155.916C44.8721 155.916 20.5964 156.129 20.5964 156.392Z" fill="#263238"/>
<path d="M126.93 177.815H18.2479V199.677H126.93V177.815Z" fill="#FF725E"/>
<path d="M119.947 178.204C119.683 178.204 119.47 182.952 119.47 188.79C119.47 194.628 119.671 199.389 119.947 199.389C120.211 199.389 120.424 194.641 120.424 188.79C120.424 182.927 120.198 178.204 119.947 178.204Z" fill="#263238"/>
<path d="M109.875 178.204C109.612 178.204 109.398 182.952 109.398 188.79C109.398 194.628 109.599 199.389 109.875 199.389C110.139 199.389 110.353 194.641 110.353 188.79C110.34 182.927 110.139 178.204 109.875 178.204Z" fill="#263238"/>
<path d="M99.9037 178.204C99.6526 178.204 99.4265 182.952 99.4265 188.79C99.4265 194.628 99.6526 199.389 99.9037 199.389C100.155 199.389 100.381 194.641 100.381 188.79C100.381 182.927 100.167 178.204 99.9037 178.204Z" fill="#263238"/>
<path d="M89.9951 178.204C89.7313 178.204 89.5178 182.952 89.5178 188.79C89.5178 194.628 89.7188 199.389 89.9951 199.389C90.2588 199.389 90.4723 194.641 90.4723 188.79C90.4723 182.927 90.2588 178.204 89.9951 178.204Z" fill="#263238"/>
<path d="M80.0989 178.204C79.8351 178.204 79.6216 182.952 79.6216 188.79C79.6216 194.628 79.8226 199.389 80.0989 199.389C80.3626 199.389 80.5761 194.641 80.5761 188.79C80.5635 182.927 80.3626 178.204 80.0989 178.204Z" fill="#263238"/>
<path d="M70.1901 178.204C69.9264 178.204 69.7129 182.952 69.7129 188.79C69.7129 194.628 69.9138 199.389 70.1901 199.389C70.4539 199.389 70.6674 194.641 70.6674 188.79C70.6548 182.927 70.4539 178.204 70.1901 178.204Z" fill="#263238"/>
<path d="M60.3443 178.204C60.0806 178.204 59.8671 182.952 59.8671 188.79C59.8671 194.628 60.068 199.389 60.3443 199.389C60.608 199.389 60.8215 194.641 60.8215 188.79C60.809 182.927 60.5452 178.204 60.3443 178.204Z" fill="#263238"/>
<path d="M50.3728 178.204C50.109 178.204 49.8955 182.952 49.8955 188.79C49.8955 194.628 50.0965 199.389 50.3728 199.389C50.6365 199.389 50.85 194.641 50.85 188.79C50.85 182.927 50.6365 178.204 50.3728 178.204Z" fill="#263238"/>
<path d="M40.4766 178.204C40.2129 178.204 39.9994 182.952 39.9994 188.79C39.9994 194.628 40.2003 199.389 40.4766 199.389C40.7403 199.389 40.9538 194.641 40.9538 188.79C40.9413 182.927 40.7403 178.204 40.4766 178.204Z" fill="#263238"/>
<path d="M30.5679 178.204C30.3041 178.204 30.0906 182.952 30.0906 188.79C30.0906 194.628 30.2916 199.389 30.5679 199.389C30.8316 199.389 31.0451 194.641 31.0451 188.79C31.0325 182.927 30.907 178.204 30.5679 178.204Z" fill="#263238"/>
<path d="M20.5964 178.204C20.3326 178.204 20.1191 182.952 20.1191 188.79C20.1191 194.628 20.3201 199.389 20.5964 199.389C20.8601 199.389 21.0736 194.641 21.0736 188.79C21.0736 182.927 20.9229 178.204 20.5964 178.204Z" fill="#263238"/>
<g opacity="0.3">
<path d="M125.197 177.853C90.2838 182.513 54.9064 182.513 19.981 177.853H125.197Z" fill="black"/>
</g>
<path d="M18.2228 177.89C18.2228 178.154 42.5111 178.367 72.4758 178.367C102.441 178.367 126.716 178.166 126.716 177.89C126.716 177.627 102.441 177.414 72.4758 177.414C42.4985 177.427 18.2228 177.715 18.2228 177.89Z" fill="#263238"/>
<path d="M137.266 198.975H28.5836V220.837H137.266V198.975Z" fill="#FF725E"/>
<path d="M130.27 199.351C130.007 199.351 129.793 204.112 129.793 209.95C129.793 215.788 129.994 220.549 130.27 220.549C130.534 220.549 130.748 215.8 130.748 209.95C130.748 204.099 130.522 199.351 130.27 199.351Z" fill="#263238"/>
<path d="M120.186 199.351C119.922 199.351 119.709 204.112 119.709 209.95C119.709 215.788 119.91 220.549 120.186 220.549C120.45 220.549 120.663 215.8 120.663 209.95C120.663 204.099 120.45 199.351 120.186 199.351Z" fill="#263238"/>
<path d="M110.227 199.351C109.976 199.351 109.75 204.112 109.75 209.95C109.75 215.788 109.976 220.549 110.227 220.549C110.478 220.549 110.704 215.8 110.704 209.95C110.704 204.099 110.491 199.351 110.227 199.351Z" fill="#263238"/>
<path d="M100.318 199.351C100.067 199.351 99.8409 204.112 99.8409 209.95C99.8409 215.788 100.067 220.549 100.318 220.549C100.569 220.549 100.795 215.8 100.795 209.95C100.795 204.099 100.582 199.351 100.318 199.351Z" fill="#263238"/>
<path d="M90.4095 199.351C90.1583 199.351 89.9323 204.112 89.9323 209.95C89.9323 215.788 90.1583 220.549 90.4095 220.549C90.6607 220.549 90.8867 215.8 90.8867 209.95C90.8867 204.099 90.6732 199.351 90.4095 199.351Z" fill="#263238"/>
<path d="M80.5008 199.351C80.2496 199.351 80.0236 204.112 80.0236 209.95C80.0236 215.788 80.2496 220.549 80.5008 220.549C80.752 220.549 80.978 215.8 80.978 209.95C80.978 204.099 80.7771 199.351 80.5008 199.351Z" fill="#263238"/>
<path d="M70.6423 199.351C70.3785 199.351 70.1651 204.112 70.1651 209.95C70.1651 215.788 70.366 220.549 70.6423 220.549C70.906 220.549 71.1195 215.8 71.1195 209.95C71.1195 204.099 70.8683 199.351 70.6423 199.351Z" fill="#263238"/>
<path d="M60.6959 199.351C60.4321 199.351 60.2186 204.112 60.2186 209.95C60.2186 215.788 60.4196 220.549 60.6959 220.549C60.9596 220.549 61.1731 215.8 61.1731 209.95C61.1731 204.099 60.9596 199.351 60.6959 199.351Z" fill="#263238"/>
<path d="M50.7871 199.351C50.5234 199.351 50.3099 204.112 50.3099 209.95C50.3099 215.788 50.5108 220.549 50.7871 220.549C51.0509 220.549 51.2644 215.8 51.2644 209.95C51.2644 204.099 51.0509 199.351 50.7871 199.351Z" fill="#263238"/>
<path d="M40.8785 199.351C40.6147 199.351 40.4012 204.112 40.4012 209.95C40.4012 215.788 40.6022 220.549 40.8785 220.549C41.1422 220.549 41.3557 215.8 41.3557 209.95C41.3557 204.099 41.205 199.351 40.8785 199.351Z" fill="#263238"/>
<path d="M30.9823 199.351C30.7186 199.351 30.5051 204.112 30.5051 209.95C30.5051 215.788 30.706 220.549 30.9823 220.549C31.2586 220.549 31.4596 215.8 31.4596 209.95C31.4596 204.099 31.2461 199.351 30.9823 199.351Z" fill="#263238"/>
<g opacity="0.3">
<path d="M135.507 199.013C100.594 203.673 65.217 203.673 30.2916 199.013H135.507Z" fill="black"/>
</g>
<path d="M28.5334 199.05C28.5334 199.314 52.8217 199.527 82.7864 199.527C112.751 199.527 137.027 199.326 137.027 199.05C137.027 198.787 112.751 198.574 82.7864 198.574C52.8217 198.587 28.5334 198.8 28.5334 199.05Z" fill="#263238"/>
<path d="M124.531 220.674H15.8492V241.696H124.531V220.674Z" fill="#FF725E"/>
<path d="M117.536 221.05C117.272 221.05 117.059 225.597 117.059 231.235C117.059 236.873 117.26 241.42 117.536 241.42C117.8 241.42 118.013 236.86 118.013 231.235C118.013 225.61 117.75 221.05 117.536 221.05Z" fill="#263238"/>
<path d="M107.439 221.05C107.175 221.05 106.962 225.597 106.962 231.235C106.962 236.873 107.163 241.42 107.439 241.42C107.703 241.42 107.916 236.86 107.916 231.235C107.916 225.61 107.728 221.05 107.439 221.05Z" fill="#263238"/>
<path d="M97.4925 221.05C97.2413 221.05 97.0153 225.597 97.0153 231.235C97.0153 236.873 97.2413 241.42 97.4925 241.42C97.7437 241.42 97.9697 236.86 97.9697 231.235C97.9572 225.61 97.7562 221.05 97.4925 221.05Z" fill="#263238"/>
<path d="M87.5838 221.05C87.3326 221.05 87.1066 225.597 87.1066 231.235C87.1066 236.873 87.3326 241.42 87.5838 241.42C87.835 241.42 88.061 236.86 88.061 231.235C88.061 225.61 87.8475 221.05 87.5838 221.05Z" fill="#263238"/>
<path d="M77.6751 221.05C77.4239 221.05 77.1979 225.597 77.1979 231.235C77.1979 236.873 77.4239 241.42 77.6751 241.42C77.9263 241.42 78.1523 236.86 78.1523 231.235C78.1523 225.61 78.0016 221.05 77.6751 221.05Z" fill="#263238"/>
<path d="M67.7789 221.05C67.5152 221.05 67.3017 225.597 67.3017 231.235C67.3017 236.873 67.5026 241.42 67.7789 241.42C68.0427 241.42 68.2562 236.86 68.2562 231.235C68.2436 225.61 68.0427 221.05 67.7789 221.05Z" fill="#263238"/>
<path d="M57.8702 221.05C57.6064 221.05 57.3929 225.597 57.3929 231.235C57.3929 236.873 57.5939 241.42 57.8702 241.42C58.1339 241.42 58.3474 236.86 58.3474 231.235C58.3348 225.61 58.1339 221.05 57.8702 221.05Z" fill="#263238"/>
<path d="M47.9615 221.05C47.6977 221.05 47.4842 225.597 47.4842 231.235C47.4842 236.873 47.6852 241.42 47.9615 241.42C48.2252 241.42 48.4387 236.86 48.4387 231.235C48.4387 225.61 48.2252 221.05 47.9615 221.05Z" fill="#263238"/>
<path d="M38.0528 221.05C37.7891 221.05 37.5756 225.597 37.5756 231.235C37.5756 236.873 37.7765 241.42 38.0528 241.42C38.3165 241.42 38.53 236.86 38.53 231.235C38.53 225.61 38.2663 221.05 38.0528 221.05Z" fill="#263238"/>
<path d="M28.1566 221.05C27.8929 221.05 27.6794 225.597 27.6794 231.235C27.6794 236.873 27.8804 241.42 28.1566 241.42C28.4204 241.42 28.6339 236.86 28.6339 231.235C28.6213 225.61 28.4204 221.05 28.1566 221.05Z" fill="#263238"/>
<path d="M18.2479 221.05C17.9842 221.05 17.7707 225.597 17.7707 231.235C17.7707 236.873 17.9716 241.42 18.2479 241.42C18.5117 241.42 18.7252 236.86 18.7252 231.235C18.7126 225.61 18.5117 221.05 18.2479 221.05Z" fill="#263238"/>
<g opacity="0.3">
<path d="M122.773 220.712C87.9605 226.675 52.3821 226.675 17.5572 220.712H122.773Z" fill="black"/>
</g>
<path d="M15.799 220.749C15.799 221.012 40.0873 221.225 70.052 221.225C100.017 221.225 124.293 221.025 124.293 220.749C124.293 220.486 100.08 220.298 70.052 220.298C40.0245 220.298 15.799 220.486 15.799 220.749Z" fill="#263238"/>
<path d="M131.501 241.721H22.8192V262.743H131.501V241.721Z" fill="#FF725E"/>
<path d="M124.519 242.072C124.267 242.072 124.041 246.632 124.041 252.282C124.041 257.92 124.267 262.468 124.519 262.468C124.77 262.468 125.008 257.907 125.008 252.282C124.996 246.657 124.782 242.072 124.519 242.072Z" fill="#263238"/>
<path d="M114.447 242.072C114.183 242.072 113.969 246.632 113.969 252.282C113.969 257.92 114.17 262.468 114.447 262.468C114.71 262.468 114.924 257.907 114.924 252.282C114.924 246.657 114.698 242.072 114.447 242.072Z" fill="#263238"/>
<path d="M104.5 242.072C104.236 242.072 104.023 246.632 104.023 252.282C104.023 257.92 104.224 262.468 104.5 262.468C104.776 262.468 104.977 257.907 104.977 252.282C104.965 246.657 104.751 242.072 104.5 242.072Z" fill="#263238"/>
<path d="M94.5789 242.072C94.3152 242.072 94.1017 246.632 94.1017 252.282C94.1017 257.92 94.3026 262.468 94.5789 262.468C94.8426 262.468 95.0561 257.907 95.0561 252.282C95.0436 246.657 94.8426 242.072 94.5789 242.072Z" fill="#263238"/>
<path d="M84.6702 242.072C84.4065 242.072 84.193 246.632 84.193 252.282C84.193 257.92 84.3939 262.468 84.6702 262.468C84.9465 262.468 85.1475 257.907 85.1475 252.282C85.1475 246.657 84.934 242.072 84.6702 242.072Z" fill="#263238"/>
<path d="M74.7615 242.072C74.4977 242.072 74.2842 246.632 74.2842 252.282C74.2842 257.92 74.4852 262.468 74.7615 262.468C75.0252 262.468 75.2387 257.907 75.2387 252.282C75.2387 246.657 75.0629 242.072 74.7615 242.072Z" fill="#263238"/>
<path d="M64.8654 242.072C64.6016 242.072 64.3881 246.632 64.3881 252.282C64.3881 257.92 64.5891 262.468 64.8654 262.468C65.1291 262.468 65.3426 257.907 65.3426 252.282C65.33 246.657 65.1291 242.072 64.8654 242.072Z" fill="#263238"/>
<path d="M54.9566 242.072C54.6929 242.072 54.4794 246.632 54.4794 252.282C54.4794 257.92 54.6803 262.468 54.9566 262.468C55.2203 262.468 55.4338 257.907 55.4338 252.282C55.4213 246.657 55.2203 242.072 54.9566 242.072Z" fill="#263238"/>
<path d="M45.0479 242.072C44.7842 242.072 44.5707 246.632 44.5707 252.282C44.5707 257.92 44.7717 262.468 45.0479 262.468C45.3117 262.468 45.5251 257.907 45.5251 252.282C45.5251 246.657 45.3117 242.072 45.0479 242.072Z" fill="#263238"/>
<path d="M35.1392 242.072C34.8755 242.072 34.662 246.632 34.662 252.282C34.662 257.92 34.8629 262.468 35.1392 262.468C35.4029 262.468 35.6165 257.907 35.6165 252.282C35.6165 246.657 35.4029 242.072 35.1392 242.072Z" fill="#263238"/>
<path d="M25.243 242.072C24.9793 242.072 24.7658 246.632 24.7658 252.282C24.7658 257.92 24.9668 262.468 25.243 262.468C25.5068 262.468 25.7203 257.907 25.7203 252.282C25.7077 246.657 25.4817 242.072 25.243 242.072Z" fill="#263238"/>
<g opacity="0.3">
<path d="M129.755 241.746C95.0184 248.499 59.3018 248.499 24.5648 241.746H129.755Z" fill="black"/>
</g>
<path d="M22.7941 241.796C22.7941 242.059 47.0824 242.272 77.0346 242.272C106.987 242.272 131.288 242.072 131.288 241.796C131.288 241.533 106.999 241.32 77.0346 241.32C47.0698 241.32 22.7941 241.533 22.7941 241.796Z" fill="#263238"/>
<path d="M125.297 262.468H16.6153V283.49H125.297V262.468Z" fill="#FF725E"/>
<path d="M118.315 262.881C118.051 262.881 117.837 267.441 117.837 273.066C117.837 278.692 118.038 283.339 118.315 283.339C118.578 283.339 118.792 278.779 118.792 273.066C118.792 267.354 118.566 262.881 118.315 262.881Z" fill="#263238"/>
<path d="M108.243 262.881C107.979 262.881 107.765 267.441 107.765 273.066C107.765 278.692 107.966 283.339 108.243 283.339C108.506 283.339 108.72 278.779 108.72 273.066C108.707 267.354 108.506 262.881 108.243 262.881Z" fill="#263238"/>
<path d="M98.2711 262.881C98.0199 262.881 97.7939 267.441 97.7939 273.066C97.7939 278.692 98.0199 283.339 98.2711 283.339C98.5223 283.339 98.7483 278.779 98.7483 273.066C98.7483 267.354 98.6102 262.881 98.2711 262.881Z" fill="#263238"/>
<path d="M88.3122 262.881C88.0485 262.881 87.835 267.441 87.835 273.066C87.835 278.692 88.0359 283.339 88.3122 283.339C88.5759 283.339 88.7894 278.779 88.7894 273.066C88.7769 267.354 88.6262 262.881 88.3122 262.881Z" fill="#263238"/>
<path d="M78.4663 262.881C78.2026 262.881 77.9891 267.441 77.9891 273.066C77.9891 278.692 78.19 283.339 78.4663 283.339C78.73 283.339 78.9435 278.779 78.9435 273.066C78.931 267.354 78.73 262.881 78.4663 262.881Z" fill="#263238"/>
<path d="M68.5576 262.881C68.2938 262.881 68.0803 267.441 68.0803 273.066C68.0803 278.692 68.2813 283.339 68.5576 283.339C68.8213 283.339 69.0348 278.779 69.0348 273.066C69.0222 267.354 68.8213 262.881 68.5576 262.881Z" fill="#263238"/>
<path d="M58.6488 262.881C58.3851 262.881 58.1716 267.441 58.1716 273.066C58.1716 278.692 58.3725 283.339 58.6488 283.339C58.9125 283.339 59.126 278.779 59.126 273.066C59.126 267.354 58.8749 262.881 58.6488 262.881Z" fill="#263238"/>
<path d="M48.7401 262.881C48.4764 262.881 48.2629 267.441 48.2629 273.066C48.2629 278.692 48.4638 283.339 48.7401 283.339C49.0038 283.339 49.2173 278.779 49.2173 273.066C49.2173 267.354 49.0038 262.881 48.7401 262.881Z" fill="#263238"/>
<path d="M38.8314 262.881C38.5677 262.881 38.3542 267.441 38.3542 273.066C38.3542 278.692 38.5551 283.339 38.8314 283.339C39.0951 283.339 39.3087 278.779 39.3087 273.066C39.3087 267.354 39.1077 262.881 38.8314 262.881Z" fill="#263238"/>
<path d="M28.9353 262.881C28.6715 262.881 28.458 267.441 28.458 273.066C28.458 278.692 28.659 283.339 28.9353 283.339C29.199 283.339 29.4125 278.779 29.4125 273.066C29.3999 267.354 29.199 262.881 28.9353 262.881Z" fill="#263238"/>
<path d="M19.0265 262.881C18.7628 262.881 18.5493 267.441 18.5493 273.066C18.5493 278.692 18.7503 283.339 19.0265 283.339C19.2903 283.339 19.5038 278.779 19.5038 273.066C19.4912 267.354 19.2903 262.881 19.0265 262.881Z" fill="#263238"/>
<g opacity="0.3">
<path d="M123.627 262.493C88.8145 268.456 53.2361 268.456 18.4112 262.493H123.627Z" fill="black"/>
</g>
<path d="M16.5776 262.543C16.5776 262.793 40.8659 263.019 70.8307 263.019C100.795 263.019 125.071 262.793 125.071 262.543C125.071 262.292 100.783 262.067 70.8307 262.067C40.8785 262.067 16.5776 262.28 16.5776 262.543Z" fill="#263238"/>
<path d="M125.297 283.44C125.297 283.44 125.297 283.327 125.297 283.089C125.297 282.851 125.297 282.462 125.297 282.037C125.297 281.047 125.297 279.681 125.297 277.94C125.297 274.332 125.222 269.133 125.184 262.718V262.48H125.423H131.413L131.162 262.743C131.162 256.592 131.162 249.526 131.162 241.709L131.489 242.034H124.129V241.696C124.129 235.194 124.129 228.141 124.129 220.837V220.486H137.215L136.864 220.837C136.864 213.057 136.864 205.578 136.864 198.562L137.19 198.9H126.566V198.574C126.566 190.97 126.566 184.092 126.566 178.191V177.928H129.504L129.266 178.179C129.266 171.401 129.266 165.964 129.266 162.18C129.266 160.351 129.266 158.91 129.266 157.883C129.266 157.407 129.266 157.056 129.266 156.768C129.253 156.643 129.253 156.518 129.266 156.392C129.278 156.518 129.278 156.643 129.266 156.768C129.266 157.044 129.266 157.42 129.266 157.883C129.266 158.91 129.266 160.339 129.366 162.168C129.366 165.976 129.529 171.401 129.643 178.166V178.417H126.704L126.955 178.166C126.955 184.042 126.955 190.945 127.03 198.549L126.704 198.236H137.002H137.341V198.574C137.341 205.59 137.341 213.069 137.341 220.849V221.2H124.242L124.607 220.849C124.607 228.191 124.607 235.207 124.607 241.709L124.267 241.37H131.627V241.696C131.627 249.476 131.627 256.579 131.627 262.731V262.994H125.373L125.611 262.756C125.611 269.208 125.536 274.369 125.511 277.977C125.511 279.719 125.511 281.084 125.511 282.074C125.511 282.5 125.511 282.851 125.511 283.126C125.448 283.239 125.385 283.339 125.297 283.44Z" fill="#263238"/>
</svg>
