<svg width="166" height="79" viewBox="0 0 166 79" fill="none" xmlns="http://www.w3.org/2000/svg">
<path d="M8.15807 20.565H19.0781V25.71H8.15807V30.855H21.0381V36H1.85807V10.975H20.8281V16.12H8.15807V20.565ZM23.8156 18.08H29.7656L32.6356 23.26H32.7056L35.5756 18.08H41.5256L36.0656 26.865L42.2256 36H35.9256L32.7056 30.47H32.6356L29.4156 36H23.1156L29.2756 26.865L23.8156 18.08ZM55.4206 17.52C60.1806 17.52 63.2256 21.16 63.2256 27.04C63.2256 32.92 60.1806 36.56 55.4206 36.56C52.8306 36.56 50.9406 35.16 50.2406 34.215H50.1706V42.195H44.5706V18.08H50.1706V19.865H50.2406C50.9406 18.92 52.8306 17.52 55.4206 17.52ZM53.9506 32.36C56.2256 32.36 57.6256 30.54 57.6256 27.04C57.6256 23.54 56.2256 21.72 53.9506 21.72C51.6756 21.72 50.2756 23.54 50.2756 27.04C50.2756 30.54 51.6756 32.36 53.9506 32.36ZM74.6785 32.36C76.6035 32.36 77.5135 31.45 77.8635 30.575H83.4285C82.4485 34.18 79.6485 36.56 74.7835 36.56C68.8335 36.56 65.2285 32.64 65.2285 27.04C65.2285 21.58 68.7635 17.52 74.4685 17.52C80.5935 17.52 83.7085 22 83.7085 28.51H70.8285C70.8285 31.03 72.6835 32.36 74.6785 32.36ZM74.4685 21.37C72.3335 21.37 70.8285 22.63 70.8285 25.115H78.1085C78.1085 22.63 76.6035 21.37 74.4685 21.37ZM97.9184 17.52C101.383 17.52 103.728 19.795 103.728 23.89V36H98.1284V25.675C98.1284 22.98 97.1834 22.07 95.3284 22.07C93.1934 22.07 91.9684 23.155 91.9684 25.64V36H86.3684V18.08H91.9684V20.67H92.0384C92.9834 19.025 94.7334 17.52 97.9184 17.52ZM115.829 24.695C119.364 25.465 122.864 26.655 122.864 30.715C122.864 34.495 119.994 36.56 115.024 36.56C108.619 36.56 106.169 33.69 105.994 30.05H111.244C111.419 31.835 112.609 32.71 114.814 32.71C116.389 32.71 117.264 32.185 117.264 31.17C117.264 29.63 115.584 29.42 112.749 28.79C109.704 28.125 106.344 27.005 106.344 23.26C106.344 20.005 109.144 17.52 114.184 17.52C119.924 17.52 122.164 20.425 122.339 23.575H117.089C116.914 22.14 116.144 21.37 114.324 21.37C112.749 21.37 111.944 21.93 111.944 22.805C111.944 24.065 113.064 24.1 115.829 24.695ZM134.282 32.36C136.207 32.36 137.117 31.45 137.467 30.575H143.032C142.052 34.18 139.252 36.56 134.387 36.56C128.437 36.56 124.832 32.64 124.832 27.04C124.832 21.58 128.367 17.52 134.072 17.52C140.197 17.52 143.312 22 143.312 28.51H130.432C130.432 31.03 132.287 32.36 134.282 32.36ZM134.072 21.37C131.937 21.37 130.432 22.63 130.432 25.115H137.712C137.712 22.63 136.207 21.37 134.072 21.37Z" fill="black"/>
<mask id="path-2-outside-1_5727_27551" maskUnits="userSpaceOnUse" x="-1" y="40" width="153" height="34" fill="black">
<rect fill="white" x="-1" y="40" width="153" height="34"/>
<path d="M9.48711 72V48.144H0.751109V41.97H25.7411V48.144H17.0471V72H9.48711ZM38.1451 50.118C38.7331 50.118 39.2371 50.118 39.9931 50.286V56.166H39.9091C36.4651 55.536 32.8111 57.426 32.8111 62.004V72H26.0911V50.496H32.8111V54.024H32.8951C33.9451 51.63 35.7931 50.118 38.1451 50.118ZM54.988 56.46C54.988 55.2 54.106 54.444 52.258 54.444C49.822 54.444 48.646 55.368 48.436 57.426H42.136C42.346 53.31 45.286 49.824 52.3 49.824C58.348 49.824 61.708 52.176 61.708 58.938V68.808C61.708 69.942 62.128 70.404 62.968 70.404V72C61.624 72.504 60.406 72.672 59.062 72.672C56.038 72.672 55.198 71.244 55.198 69.732H55.114C53.728 71.328 51.208 72.672 48.352 72.672C43.816 72.672 41.296 70.11 41.296 66.498C41.296 62.214 44.446 60.24 49.486 59.232C52.258 58.686 54.988 58.266 54.988 56.46ZM50.704 68.052C53.602 68.052 54.988 66.204 54.988 64.146V61.542C54.148 61.878 53.098 62.172 51.544 62.508C48.898 63.096 48.016 64.188 48.016 65.532C48.016 67.296 49.066 68.052 50.704 68.052ZM80.1709 58.518C79.9609 56.796 79.0369 54.864 76.3489 54.864C73.5769 54.864 72.0229 57.216 72.0229 61.248C72.0229 65.28 73.5349 67.632 76.3489 67.632C79.0369 67.632 79.9609 65.826 80.1709 63.894H86.7649C86.4289 68.976 82.5649 72.672 76.3909 72.672C69.5869 72.672 65.3029 67.968 65.3029 61.248C65.3029 54.57 69.5869 49.824 76.2229 49.824C82.4809 49.824 86.2189 53.52 86.7649 58.518H80.1709ZM89.7005 41.97H96.4205V57.762L102.721 50.496H110.743L103.141 58.56L111.625 72H103.645L98.5625 63.432L96.4205 65.658V72H89.7005V41.97ZM122.645 67.632C124.955 67.632 126.047 66.54 126.467 65.49H133.145C131.969 69.816 128.609 72.672 122.771 72.672C115.631 72.672 111.305 67.968 111.305 61.248C111.305 54.696 115.547 49.824 122.393 49.824C129.743 49.824 133.481 55.2 133.481 63.012H118.025C118.025 66.036 120.251 67.632 122.645 67.632ZM122.393 54.444C119.831 54.444 118.025 55.956 118.025 58.938H126.761C126.761 55.956 124.955 54.444 122.393 54.444ZM148.577 50.118C149.165 50.118 149.669 50.118 150.425 50.286V56.166H150.341C146.897 55.536 143.243 57.426 143.243 62.004V72H136.523V50.496H143.243V54.024H143.327C144.377 51.63 146.225 50.118 148.577 50.118Z"/>
</mask>
<path d="M9.48711 72H8.48711V73H9.48711V72ZM9.48711 48.144H10.4871V47.144H9.48711V48.144ZM0.751109 48.144H-0.248891V49.144H0.751109V48.144ZM0.751109 41.97V40.97H-0.248891V41.97H0.751109ZM25.7411 41.97H26.7411V40.97H25.7411V41.97ZM25.7411 48.144V49.144H26.7411V48.144H25.7411ZM17.0471 48.144V47.144H16.0471V48.144H17.0471ZM17.0471 72V73H18.0471V72H17.0471ZM10.4871 72V48.144H8.48711V72H10.4871ZM9.48711 47.144H0.751109V49.144H9.48711V47.144ZM1.75111 48.144V41.97H-0.248891V48.144H1.75111ZM0.751109 42.97H25.7411V40.97H0.751109V42.97ZM24.7411 41.97V48.144H26.7411V41.97H24.7411ZM25.7411 47.144H17.0471V49.144H25.7411V47.144ZM16.0471 48.144V72H18.0471V48.144H16.0471ZM17.0471 71H9.48711V73H17.0471V71ZM39.9931 50.286H40.9931V49.4838L40.2101 49.3098L39.9931 50.286ZM39.9931 56.166V57.166H40.9931V56.166H39.9931ZM39.9091 56.166L39.7292 57.1497L39.8184 57.166H39.9091V56.166ZM32.8111 72V73H33.8111V72H32.8111ZM26.0911 72H25.0911V73H26.0911V72ZM26.0911 50.496V49.496H25.0911V50.496H26.0911ZM32.8111 50.496H33.8111V49.496H32.8111V50.496ZM32.8111 54.024H31.8111V55.024H32.8111V54.024ZM32.8951 54.024V55.024H33.5485L33.8109 54.4257L32.8951 54.024ZM38.1451 51.118C38.72 51.118 39.1326 51.1192 39.7762 51.2622L40.2101 49.3098C39.3417 49.1168 38.7463 49.118 38.1451 49.118V51.118ZM38.9931 50.286V56.166H40.9931V50.286H38.9931ZM39.9931 55.166H39.9091V57.166H39.9931V55.166ZM40.0891 55.1823C38.1438 54.8265 36.0835 55.171 34.485 56.32C32.8566 57.4904 31.8111 59.4225 31.8111 62.004H33.8111C33.8111 60.0075 34.5926 58.7056 35.6523 57.944C36.7417 57.161 38.2304 56.8755 39.7292 57.1497L40.0891 55.1823ZM31.8111 62.004V72H33.8111V62.004H31.8111ZM32.8111 71H26.0911V73H32.8111V71ZM27.0911 72V50.496H25.0911V72H27.0911ZM26.0911 51.496H32.8111V49.496H26.0911V51.496ZM31.8111 50.496V54.024H33.8111V50.496H31.8111ZM32.8111 55.024H32.8951V53.024H32.8111V55.024ZM33.8109 54.4257C34.7509 52.2825 36.3001 51.118 38.1451 51.118V49.118C35.2862 49.118 33.1394 50.9775 31.9793 53.6223L33.8109 54.4257ZM48.436 57.426V58.426H49.3392L49.4309 57.5275L48.436 57.426ZM42.136 57.426L41.1373 57.375L41.0837 58.426H42.136V57.426ZM62.968 70.404H63.968V69.404H62.968V70.404ZM62.968 72L63.3191 72.9363L63.968 72.693V72H62.968ZM55.198 69.732H56.198V68.732H55.198V69.732ZM55.114 69.732V68.732H54.658L54.359 69.0763L55.114 69.732ZM49.486 59.232L49.2928 58.2508L49.2899 58.2514L49.486 59.232ZM54.988 61.542H55.988V60.065L54.6166 60.6135L54.988 61.542ZM51.544 62.508L51.3327 61.5306L51.3271 61.5318L51.544 62.508ZM55.988 56.46C55.988 55.5738 55.6633 54.7529 54.9248 54.1862C54.2296 53.6527 53.2955 53.444 52.258 53.444V55.444C53.0685 55.444 53.4994 55.6133 53.7072 55.7728C53.8718 55.8991 53.988 56.0862 53.988 56.46H55.988ZM52.258 53.444C50.9373 53.444 49.7729 53.6904 48.8965 54.3753C47.9908 55.0831 47.5639 56.1218 47.4412 57.3245L49.4309 57.5275C49.5181 56.6722 49.7842 56.2199 50.128 55.9512C50.5011 55.6596 51.1427 55.444 52.258 55.444V53.444ZM48.436 56.426H42.136V58.426H48.436V56.426ZM43.1347 57.477C43.228 55.6495 43.9179 54.0249 45.3125 52.8449C46.7182 51.6554 48.9516 50.824 52.3 50.824V48.824C48.6344 48.824 45.8908 49.7356 44.0206 51.3181C42.1392 52.9101 41.2541 55.0865 41.1373 57.375L43.1347 57.477ZM52.3 50.824C55.2261 50.824 57.2781 51.3987 58.6039 52.5893C59.9068 53.7593 60.708 55.7082 60.708 58.938H62.708C62.708 55.4058 61.8293 52.7977 59.9402 51.1012C58.074 49.4253 55.422 48.824 52.3 48.824V50.824ZM60.708 58.938V68.808H62.708V58.938H60.708ZM60.708 68.808C60.708 69.464 60.823 70.1426 61.2484 70.6636C61.7114 71.2309 62.3643 71.404 62.968 71.404V69.404C62.846 69.404 62.7913 69.3868 62.7781 69.3817C62.7737 69.38 62.7877 69.3866 62.7977 69.3989C62.803 69.4054 62.708 69.286 62.708 68.808H60.708ZM61.968 70.404V72H63.968V70.404H61.968ZM62.6169 71.0637C61.4056 71.5179 60.3101 71.672 59.062 71.672V73.672C60.502 73.672 61.8424 73.4901 63.3191 72.9363L62.6169 71.0637ZM59.062 71.672C57.6911 71.672 57.0115 71.3473 56.6765 71.0362C56.354 70.7368 56.198 70.3072 56.198 69.732H54.198C54.198 70.6688 54.4621 71.7092 55.3156 72.5018C56.1565 73.2827 57.4089 73.672 59.062 73.672V71.672ZM55.198 68.732H55.114V70.732H55.198V68.732ZM54.359 69.0763C53.1585 70.4587 50.9117 71.672 48.352 71.672V73.672C51.5043 73.672 54.2975 72.1973 55.869 70.3877L54.359 69.0763ZM48.352 71.672C46.2691 71.672 44.7672 71.0859 43.797 70.2007C42.8349 69.3231 42.296 68.062 42.296 66.498H40.296C40.296 68.546 41.0171 70.3719 42.4491 71.6783C43.8728 72.9771 45.8989 73.672 48.352 73.672V71.672ZM42.296 66.498C42.296 64.6451 42.957 63.3697 44.1327 62.4117C45.3624 61.4098 47.2198 60.705 49.6821 60.2126L49.2899 58.2514C46.7122 58.767 44.4747 59.5532 42.8693 60.8613C41.21 62.2133 40.296 64.0669 40.296 66.498H42.296ZM49.6793 60.2131C51.0121 59.9506 52.5043 59.6905 53.638 59.2509C54.7455 58.8214 55.988 58.0276 55.988 56.46H53.988C53.988 56.6984 53.8655 57.0176 52.915 57.3861C51.9907 57.7445 50.7319 57.9674 49.2928 58.2509L49.6793 60.2131ZM50.704 69.052C52.3738 69.052 53.7178 68.5137 54.6451 67.5726C55.5646 66.6395 55.988 65.3975 55.988 64.146H53.988C53.988 64.9525 53.7185 65.6635 53.2205 66.1689C52.7303 66.6663 51.9322 67.052 50.704 67.052V69.052ZM55.988 64.146V61.542H53.988V64.146H55.988ZM54.6166 60.6135C53.8535 60.9188 52.8669 61.1989 51.3327 61.5306L51.7553 63.4854C53.3292 63.1451 54.4425 62.8372 55.3594 62.4705L54.6166 60.6135ZM51.3271 61.5318C49.9186 61.8448 48.8406 62.3193 48.1054 63.0054C47.3323 63.7271 47.016 64.6104 47.016 65.532H49.016C49.016 65.1096 49.1408 64.7749 49.4701 64.4676C49.8374 64.1247 50.5234 63.7592 51.7609 63.4842L51.3271 61.5318ZM47.016 65.532C47.016 66.6172 47.3462 67.5566 48.0867 68.2056C48.8033 68.8336 49.7496 69.052 50.704 69.052V67.052C50.0204 67.052 49.6227 66.8924 49.4049 66.7014C49.2108 66.5314 49.016 66.2108 49.016 65.532H47.016ZM80.1709 58.518L79.1782 58.6391L79.2854 59.518H80.1709V58.518ZM80.1709 63.894V62.894H79.2737L79.1767 63.7859L80.1709 63.894ZM86.7649 63.894L87.7627 63.96L87.8332 62.894H86.7649V63.894ZM86.7649 58.518V59.518H87.8801L87.7589 58.4094L86.7649 58.518ZM81.1635 58.3969C81.045 57.425 80.7163 56.2983 79.9512 55.3978C79.154 54.4595 77.9641 53.864 76.3489 53.864V55.864C77.4217 55.864 78.0377 56.2345 78.427 56.6927C78.8484 57.1887 79.0867 57.889 79.1782 58.6391L81.1635 58.3969ZM76.3489 53.864C74.6335 53.864 73.2395 54.6147 72.3168 55.9856C71.4282 57.3058 71.0229 59.126 71.0229 61.248H73.0229C73.0229 59.338 73.3945 57.9662 73.9759 57.1024C74.5232 56.2893 75.2922 55.864 76.3489 55.864V53.864ZM71.0229 61.248C71.0229 63.365 71.4159 65.1858 72.2992 66.5076C73.219 67.8841 74.6162 68.632 76.3489 68.632V66.632C75.2675 66.632 74.5017 66.2039 73.962 65.3964C73.3858 64.5342 73.0229 63.163 73.0229 61.248H71.0229ZM76.3489 68.632C77.9421 68.632 79.1393 68.0834 79.9488 67.1378C80.7249 66.2312 81.0488 65.0707 81.165 64.0021L79.1767 63.7859C79.0829 64.6493 78.8398 65.3578 78.4295 65.8372C78.0524 66.2776 77.4436 66.632 76.3489 66.632V68.632ZM80.1709 64.894H86.7649V62.894H80.1709V64.894ZM85.767 63.828C85.6152 66.1246 84.6737 68.065 83.1081 69.4366C81.5394 70.8109 79.2765 71.672 76.3909 71.672V73.672C79.6792 73.672 82.4353 72.6851 84.4261 70.9409C86.42 69.194 87.5785 66.7454 87.7627 63.96L85.767 63.828ZM76.3909 71.672C73.2289 71.672 70.7301 70.585 69.0192 68.7901C67.3031 66.9895 66.3029 64.3949 66.3029 61.248H64.3029C64.3029 64.8211 65.4447 67.9385 67.5715 70.1699C69.7037 72.407 72.7488 73.672 76.3909 73.672V71.672ZM66.3029 61.248C66.3029 58.1232 67.3026 55.5251 69.0029 53.7168C70.6971 51.9149 73.1545 50.824 76.2229 50.824V48.824C72.6552 48.824 69.6526 50.1061 67.5458 52.3467C65.4451 54.5809 64.3029 57.6948 64.3029 61.248H66.3029ZM76.2229 50.824C79.1512 50.824 81.4055 51.6855 82.9805 53.0521C84.5555 54.4186 85.5222 56.3511 85.7708 58.6266L87.7589 58.4094C87.4615 55.6869 86.2862 53.2724 84.2912 51.5414C82.2962 49.8105 79.5526 48.824 76.2229 48.824V50.824ZM86.7649 57.518H80.1709V59.518H86.7649V57.518ZM89.7005 41.97V40.97H88.7005V41.97H89.7005ZM96.4205 41.97H97.4205V40.97H96.4205V41.97ZM96.4205 57.762H95.4205V60.4418L97.176 58.4171L96.4205 57.762ZM102.72 50.496V49.496H102.264L101.965 49.8409L102.72 50.496ZM110.743 50.496L111.47 51.182L113.06 49.496H110.743V50.496ZM103.141 58.56L102.413 57.874L101.881 58.4382L102.295 59.0938L103.141 58.56ZM111.625 72V73H113.438L112.47 71.4662L111.625 72ZM103.645 72L102.784 72.5101L103.075 73H103.645V72ZM98.5625 63.432L99.4226 62.9219L98.7526 61.7923L97.8419 62.7386L98.5625 63.432ZM96.4205 65.658L95.6999 64.9646L95.4205 65.255V65.658H96.4205ZM96.4205 72V73H97.4205V72H96.4205ZM89.7005 72H88.7005V73H89.7005V72ZM89.7005 42.97H96.4205V40.97H89.7005V42.97ZM95.4205 41.97V57.762H97.4205V41.97H95.4205ZM97.176 58.4171L103.476 51.1511L101.965 49.8409L95.665 57.1069L97.176 58.4171ZM102.72 51.496H110.743V49.496H102.72V51.496ZM110.015 49.81L102.413 57.874L103.868 59.246L111.47 51.182L110.015 49.81ZM102.295 59.0938L110.779 72.5338L112.47 71.4662L103.986 58.0262L102.295 59.0938ZM111.625 71H103.645V73H111.625V71ZM104.505 71.4899L99.4226 62.9219L97.7024 63.9421L102.784 72.5101L104.505 71.4899ZM97.8419 62.7386L95.6999 64.9646L97.1411 66.3514L99.2831 64.1254L97.8419 62.7386ZM95.4205 65.658V72H97.4205V65.658H95.4205ZM96.4205 71H89.7005V73H96.4205V71ZM90.7005 72V41.97H88.7005V72H90.7005ZM126.467 65.49V64.49H125.79L125.538 65.1186L126.467 65.49ZM133.145 65.49L134.11 65.7523L134.453 64.49H133.145V65.49ZM133.481 63.012V64.012H134.481V63.012H133.481ZM118.025 63.012V62.012H117.025V63.012H118.025ZM118.025 58.938H117.025V59.938H118.025V58.938ZM126.761 58.938V59.938H127.761V58.938H126.761ZM122.645 68.632C123.961 68.632 125.01 68.3192 125.814 67.7901C126.617 67.2615 127.118 66.5548 127.395 65.8614L125.538 65.1186C125.396 65.4752 125.14 65.8395 124.715 66.1194C124.29 66.3988 123.639 66.632 122.645 66.632V68.632ZM126.467 66.49H133.145V64.49H126.467V66.49ZM132.18 65.2277C131.642 67.2062 130.623 68.7947 129.116 69.8959C127.606 70.9997 125.526 71.672 122.771 71.672V73.672C125.854 73.672 128.373 72.9163 130.296 71.5106C132.223 70.1023 133.472 68.0998 134.11 65.7523L132.18 65.2277ZM122.771 71.672C119.427 71.672 116.833 70.5759 115.075 68.7804C113.313 66.9813 112.305 64.3917 112.305 61.248H110.305C110.305 64.8243 111.459 67.9467 113.646 70.1796C115.836 72.4161 118.974 73.672 122.771 73.672V71.672ZM112.305 61.248C112.305 58.1875 113.293 55.589 115.01 53.7642C116.72 51.9467 119.219 50.824 122.393 50.824V48.824C118.721 48.824 115.676 50.1373 113.553 52.3938C111.437 54.643 110.305 57.7565 110.305 61.248H112.305ZM122.393 50.824C125.8 50.824 128.269 52.0563 129.912 54.1125C131.579 56.2005 132.481 59.25 132.481 63.012H134.481C134.481 58.962 133.513 55.4175 131.474 52.8645C129.41 50.2797 126.336 48.824 122.393 48.824V50.824ZM133.481 62.012H118.025V64.012H133.481V62.012ZM117.025 63.012C117.025 64.7877 117.687 66.2179 118.765 67.1964C119.827 68.1611 121.232 68.632 122.645 68.632V66.632C121.664 66.632 120.758 66.3049 120.109 65.7156C119.475 65.1401 119.025 64.2603 119.025 63.012H117.025ZM122.393 53.444C120.918 53.444 119.552 53.8818 118.551 54.856C117.544 55.8357 117.025 57.2416 117.025 58.938H119.025C119.025 57.6524 119.409 56.8113 119.945 56.2895C120.487 55.7622 121.305 55.444 122.393 55.444V53.444ZM118.025 59.938H126.761V57.938H118.025V59.938ZM127.761 58.938C127.761 57.2416 127.242 55.8357 126.235 54.856C125.233 53.8818 123.867 53.444 122.393 53.444V55.444C123.48 55.444 124.298 55.7622 124.84 56.2895C125.377 56.8113 125.761 57.6524 125.761 58.938H127.761ZM150.425 50.286H151.425V49.4838L150.642 49.3098L150.425 50.286ZM150.425 56.166V57.166H151.425V56.166H150.425ZM150.341 56.166L150.161 57.1497L150.25 57.166H150.341V56.166ZM143.243 72V73H144.243V72H143.243ZM136.523 72H135.523V73H136.523V72ZM136.523 50.496V49.496H135.523V50.496H136.523ZM143.243 50.496H144.243V49.496H143.243V50.496ZM143.243 54.024H142.243V55.024H143.243V54.024ZM143.327 54.024V55.024H143.98L144.243 54.4257L143.327 54.024ZM148.577 51.118C149.152 51.118 149.564 51.1192 150.208 51.2622L150.642 49.3098C149.773 49.1168 149.178 49.118 148.577 49.118V51.118ZM149.425 50.286V56.166H151.425V50.286H149.425ZM150.425 55.166H150.341V57.166H150.425V55.166ZM150.521 55.1823C148.575 54.8265 146.515 55.171 144.917 56.32C143.288 57.4904 142.243 59.4225 142.243 62.004H144.243C144.243 60.0075 145.024 58.7056 146.084 57.944C147.173 57.161 148.662 56.8755 150.161 57.1497L150.521 55.1823ZM142.243 62.004V72H144.243V62.004H142.243ZM143.243 71H136.523V73H143.243V71ZM137.523 72V50.496H135.523V72H137.523ZM136.523 51.496H143.243V49.496H136.523V51.496ZM142.243 50.496V54.024H144.243V50.496H142.243ZM143.243 55.024H143.327V53.024H143.243V55.024ZM144.243 54.4257C145.183 52.2825 146.732 51.118 148.577 51.118V49.118C145.718 49.118 143.571 50.9775 142.411 53.6223L144.243 54.4257Z" fill="black" mask="url(#path-2-outside-1_5727_27551)"/>
<circle cx="139" cy="9" r="5" fill="#6E7191"/>
<circle cx="156" cy="10" r="10" fill="#FF764A"/>
<circle cx="2" cy="2" r="2" transform="matrix(-1 0 0 1 153 23)" fill="#14142B"/>
</svg>
