<svg width="366" height="370" viewBox="0 0 366 370" fill="none" xmlns="http://www.w3.org/2000/svg">
<path d="M124.487 150L25.9594 213.862V226.568L223.041 227.18V213.862L124.487 150Z" fill="#E0E0E0"/>
<path d="M64.8089 233.24H27.5164V239.173H64.8089V233.24Z" fill="#E0E0E0"/>
<path d="M64.8089 336.723H27.5164V342.656H64.8089V336.723Z" fill="#E0E0E0"/>
<path d="M59.7039 236.194H32.647V339.677H59.7039V236.194Z" fill="#E0E0E0"/>
<path d="M142.585 233.24H105.292V239.173H142.585V233.24Z" fill="#E0E0E0"/>
<path d="M142.585 336.723H105.292V342.656H142.585V336.723Z" fill="#E0E0E0"/>
<path d="M137.48 236.194H110.423V339.677H137.48V236.194Z" fill="#E0E0E0"/>
<path d="M223.015 233.24H185.723V239.173H223.015V233.24Z" fill="#E0E0E0"/>
<path d="M223.015 336.723H185.723V342.656H223.015V336.723Z" fill="#E0E0E0"/>
<path d="M217.91 236.194H190.853V339.677H217.91V236.194Z" fill="#E0E0E0"/>
<path d="M233.532 348.589H15.4683V359.92H233.532V348.589Z" fill="#E0E0E0"/>
<path d="M249 364.809H0V376.141H249V364.809Z" fill="#E0E0E0"/>
<path d="M123.951 201.334C132.593 201.334 139.598 194.346 139.598 185.725C139.598 177.105 132.593 170.116 123.951 170.116C115.31 170.116 108.304 177.105 108.304 185.725C108.304 194.346 115.31 201.334 123.951 201.334Z" fill="white"/>
<path d="M57.5773 258.961L30.4131 351.206H38.0488L75.4984 258.322L57.5773 258.961Z" fill="#6F4439"/>
<path d="M124.213 258.961L97.0615 350.329H104.697L142.147 258.322L124.213 258.961Z" fill="#6F4439"/>
<path d="M206.962 258.961L231.589 350.329H223.953L189.04 258.322L206.962 258.961Z" fill="#AE7461"/>
<path d="M127.215 258.961L150.548 350.329H142.925L109.281 258.322L127.215 258.961Z" fill="#AE7461"/>
<path d="M221.68 218.959C221.68 218.959 223.803 191.147 219.558 183.216C215.3 175.274 174.485 159.162 174.485 159.162C174.485 159.162 146.467 115.051 127.742 105.718C109.017 96.3842 35.8887 97.662 25.2641 112.082C14.6396 126.502 26.5451 164.249 32.0709 187.15L52.0515 243.138L57.5773 258.974H209.787L221.68 218.959Z" fill="#FF725E"/>
<path d="M32.1085 111.631C32.096 111.631 32.0583 111.731 31.9955 111.919C31.9327 112.107 31.8322 112.408 31.7192 112.783C31.4932 113.548 31.1917 114.7 30.8903 116.204C30.3001 119.198 29.6722 123.633 29.9484 129.17C30.0866 131.939 30.5136 134.946 30.9908 138.165C31.4806 141.385 32.0708 144.83 32.7364 148.463C34.0551 155.73 35.6249 163.735 37.3957 172.217L37.4208 172.342L37.5338 172.405C39.8195 173.545 42.2307 174.772 44.6922 175.963C61.9728 184.381 78.1734 190.771 90.0287 194.968C95.9563 197.072 100.804 198.638 104.17 199.691C105.827 200.192 107.133 200.593 108.05 200.868C108.477 200.994 108.804 201.081 109.067 201.157C109.294 201.219 109.419 201.244 109.419 201.244C109.419 201.232 109.306 201.194 109.08 201.106C108.829 201.019 108.502 200.906 108.088 200.768C107.171 200.468 105.89 200.042 104.245 199.503C100.904 198.388 96.0819 196.772 90.1794 194.617C78.3617 190.332 62.1989 183.893 44.9434 175.487C42.4819 174.296 40.0707 173.081 37.7975 171.941L37.9357 172.129C36.1649 163.66 34.57 155.655 33.2262 148.401C32.5481 144.78 31.9453 141.335 31.4304 138.115C30.928 134.895 30.4759 131.901 30.3252 129.17C30.0112 123.683 30.5764 119.26 31.1038 116.266C31.3801 114.763 31.6438 113.623 31.8322 112.846C31.9201 112.483 31.9955 112.195 32.0583 111.969C32.0834 111.731 32.1085 111.631 32.1085 111.631Z" fill="#263238"/>
<path d="M202.039 241.698C201.888 241.672 201.122 245.519 200.331 250.292C199.527 255.065 198.999 258.949 199.15 258.974C199.301 258.999 200.067 255.153 200.858 250.379C201.649 245.606 202.177 241.71 202.039 241.698Z" fill="#263238"/>
<path d="M123.246 258.322C123.397 258.297 121.689 247.673 119.453 234.594C117.205 221.515 115.271 210.929 115.133 210.954C114.983 210.979 116.691 221.602 118.926 234.682C121.161 247.761 123.095 258.347 123.246 258.322Z" fill="#263238"/>
<path d="M306.576 265.927L327.499 292.336C327.499 292.336 361.432 279.996 365.777 284.493L315.895 326.801L281.61 286.987L306.576 265.927Z" fill="#263238"/>
<path d="M310.231 303.261C309.49 304.338 309.741 305.992 310.796 306.768C311.851 307.545 313.534 307.307 314.287 306.242C315.053 305.177 314.802 303.185 313.672 302.521C312.541 301.857 310.582 302.258 310.093 303.474" fill="#E0E0E0"/>
<path d="M315.895 326.813L312.592 322.667L361.645 283.654C361.645 283.654 364.685 282.74 365.765 284.506L315.895 326.813Z" fill="#455A64"/>
<path d="M328.089 291.396C328.29 291.647 327.16 292.787 326.632 294.591C326.054 296.37 326.331 297.949 326.029 298.049C325.766 298.187 324.887 296.433 325.577 294.265C326.23 292.085 327.951 291.133 328.089 291.396Z" fill="white"/>
<path d="M335.159 289.116C335.411 289.304 334.707 290.607 334.758 292.336C334.758 294.065 335.499 295.355 335.247 295.556C335.046 295.794 333.665 294.503 333.652 292.361C333.602 290.206 334.959 288.891 335.159 289.116Z" fill="white"/>
<path d="M343.448 292.85C343.272 293.088 341.903 292.161 341.388 290.306C340.861 288.452 341.564 286.949 341.841 287.062C342.155 287.149 342.016 288.49 342.456 290.006C342.87 291.534 343.674 292.624 343.448 292.85Z" fill="white"/>
<path d="M322.651 285.909C322.739 286.222 321.332 286.824 320.039 288.089C318.72 289.329 318.042 290.695 317.728 290.595C317.439 290.545 317.716 288.753 319.26 287.287C320.805 285.809 322.601 285.621 322.651 285.909Z" fill="white"/>
<path d="M261.102 221.039C261.102 223.432 271.827 333.428 271.827 333.428L235.608 337.613C235.608 337.613 226.591 282.138 225.197 271.915C223.803 261.692 219.106 243.364 219.106 243.364L141.82 235.747C141.82 235.747 179.722 182.853 183.402 182.628C187.094 182.415 261.102 221.039 261.102 221.039Z" fill="#263238"/>
<path d="M323.706 281.825C323.706 281.825 258.841 194.116 255.099 189.518C251.356 184.92 247.036 180.047 233.51 180.047C219.985 180.047 183.402 182.64 183.402 182.64L164.074 173.858L93.8967 184.657C93.8967 184.657 91.3096 217.957 95.9061 225.712C100.515 233.467 127.855 235.471 133.607 235.759C139.359 236.047 228.512 223.97 228.512 223.97C228.512 223.97 245.981 248.162 254.37 257.458C260.348 264.085 292.259 304.939 292.259 304.939L323.706 281.825Z" fill="#263238"/>
<path d="M291.87 305.253C291.556 304.839 259.896 264.336 254.006 257.796C246.157 249.089 230.182 227.127 228.299 224.521C221.63 225.423 139.221 236.599 133.607 236.273C130.229 236.11 100.477 234.381 95.4791 225.975C90.845 218.17 93.2814 185.985 93.3944 184.62L93.4195 184.206L163.999 173.344L164.149 173.319L183.502 182.114C185.926 181.939 220.537 179.533 233.523 179.533C247.639 179.533 252.009 184.895 255.513 189.205C259.218 193.752 323.48 280.647 324.133 281.524L324.447 281.938L292.184 305.653L291.87 305.253ZM254.709 189.844C251.344 185.709 247.149 180.56 233.523 180.56C220.173 180.56 183.816 183.129 183.452 183.154L183.326 183.166L164.011 174.384L94.3991 185.096C94.1228 188.929 92.1762 218.37 96.3708 225.436C101.181 233.517 132.326 235.17 133.657 235.233C139.309 235.521 227.57 223.569 228.462 223.457L228.776 223.419L228.964 223.67C229.14 223.908 246.508 247.937 254.785 257.12C260.386 263.334 289.069 299.991 292.385 304.238L323.003 281.725C318.13 275.147 258.263 194.216 254.709 189.844Z" fill="#455A64"/>
<path d="M235.696 212.344C235.57 212.269 233.699 214.937 231.501 218.308C229.316 221.69 227.646 224.484 227.771 224.572C227.897 224.647 229.768 221.978 231.966 218.608C234.138 215.226 235.821 212.419 235.696 212.344Z" fill="#455A64"/>
<path d="M268.9 311.692L267.054 345.305C267.054 345.305 300.686 358.472 300.95 364.711L235.495 363.483L236.223 310.99L268.9 311.692Z" fill="#263238"/>
<path d="M246.86 342.085C245.592 342.411 244.687 343.814 244.951 345.092C245.215 346.37 246.647 347.297 247.928 346.996C249.209 346.695 250.339 345.042 249.924 343.801C249.51 342.561 247.777 341.559 246.609 342.16" fill="#E0E0E0"/>
<path d="M235.482 363.471L235.758 358.184L298.413 361.341C298.413 361.341 301.302 362.656 300.937 364.698L235.482 363.471Z" fill="#455A64"/>
<path d="M268.122 344.992C268.109 345.305 266.502 345.43 264.907 346.42C263.287 347.372 262.458 348.738 262.157 348.612C261.868 348.55 262.37 346.645 264.329 345.48C266.263 344.278 268.197 344.703 268.122 344.992Z" fill="white"/>
<path d="M274.929 347.948C274.991 348.261 273.597 348.775 272.492 350.103C271.337 351.393 271.035 352.847 270.721 352.834C270.42 352.884 270.232 351.005 271.651 349.376C273.045 347.748 274.929 347.648 274.929 347.948Z" fill="white"/>
<path d="M278.671 356.217C278.382 356.279 277.968 354.676 278.822 352.947C279.663 351.206 281.183 350.554 281.308 350.817C281.484 351.08 280.492 352.007 279.814 353.436C279.111 354.851 278.998 356.192 278.671 356.217Z" fill="white"/>
<path d="M267.682 337.287C267.544 337.575 266.087 337.111 264.279 337.199C262.47 337.249 261.051 337.826 260.888 337.55C260.712 337.312 262.106 336.159 264.229 336.084C266.364 335.996 267.846 337.036 267.682 337.287Z" fill="white"/>
<path d="M136.621 97.9877L134.348 118.96L160.733 171.778C160.733 171.778 176.344 176.965 181.87 182.628L169.223 183.179C151.088 183.968 133.544 190.257 119.052 201.532C112.81 206.393 107.774 211.655 106.832 216.428C104.082 230.51 99.8746 228.33 99.8746 228.33L83.875 207.784L72.6602 185.559L50.1678 98.5014L71.8816 86.6122L76.7543 79.5338L108.867 83.9939L115.271 90.2955L136.621 97.9877Z" fill="#455A64"/>
<path d="M189.932 154.251L176.444 148.614L155.258 118.96C155.258 118.96 145.437 99.3533 136.621 97.9752C127.805 96.5971 134.348 118.947 134.348 118.947L147.936 157.434L169.851 172.73L184.959 171.415L194.742 163.109L189.932 154.251Z" fill="#455A64"/>
<path d="M134.511 105.292C134.499 105.304 134.574 105.542 134.737 105.981C134.926 106.469 135.177 107.121 135.491 107.923C136.181 109.664 137.136 112.082 138.316 115.038C140.69 121.052 143.867 129.396 147.359 138.629C150.85 147.862 154.09 156.193 156.551 162.182C157.782 165.176 158.799 167.581 159.54 169.235C159.892 170.024 160.181 170.651 160.394 171.139C160.595 171.565 160.708 171.791 160.721 171.791C160.733 171.778 160.658 171.54 160.495 171.102C160.306 170.613 160.055 169.962 159.741 169.16C159.051 167.418 158.096 165 156.916 162.044C154.542 156.03 151.365 147.687 147.873 138.441C144.382 129.208 141.155 120.877 138.681 114.901C137.45 111.906 136.433 109.501 135.692 107.847C135.34 107.058 135.051 106.432 134.838 105.943C134.637 105.505 134.524 105.279 134.511 105.292Z" fill="#263238"/>
<path d="M108.05 104.415C108.088 104.427 108.377 103.926 108.854 102.986C109.381 101.959 110.06 100.619 110.876 99.015H110.524C111.228 100.569 112.056 102.41 113.149 104.365C114.242 106.306 115.636 108.386 117.545 110.153L118.047 110.616L117.997 109.927C117.997 109.889 117.997 109.852 117.984 109.814C117.595 104.477 116.967 99.6665 116.389 96.2088C116.1 94.4799 115.849 93.0892 115.648 92.1246C115.447 91.1599 115.322 90.6337 115.284 90.6463C115.246 90.6588 115.309 91.1975 115.447 92.1622C115.598 93.2271 115.786 94.6051 116.025 96.2714C116.502 99.7417 117.067 104.54 117.457 109.864C117.457 109.902 117.457 109.94 117.469 109.977L117.921 109.764C116.063 108.048 114.694 106.031 113.589 104.126C112.483 102.21 111.629 100.381 110.889 98.8522L110.7 98.4763L110.524 98.8522C109.771 100.493 109.143 101.859 108.666 102.899C108.239 103.863 108.013 104.402 108.05 104.415Z" fill="#263238"/>
<path d="M73.9788 88.2534C73.9663 88.2659 74.0667 88.4163 74.2802 88.6794C74.5314 88.9926 74.8454 89.3684 75.2221 89.8194C76.051 90.7966 77.2692 92.1998 78.8264 93.8785C81.9284 97.2486 86.4118 101.746 91.699 106.344C94.0977 108.436 96.4587 110.353 98.6564 112.069L99.0583 112.383L99.0709 111.881C99.1336 107.923 99.8872 104.515 100.678 101.984L100.427 102.084C102.06 103.024 103.378 103.776 104.371 104.339C105.3 104.853 105.802 105.129 105.827 105.091C105.84 105.066 105.363 104.74 104.471 104.177C103.504 103.575 102.21 102.773 100.603 101.784L100.415 101.671L100.339 101.884C99.4727 104.427 98.6564 107.872 98.556 111.881L98.9704 111.693C96.7977 109.965 94.4493 108.035 92.0632 105.956C86.7886 101.383 82.2926 96.9354 79.1153 93.6405C77.5203 91.9993 76.2645 90.6337 75.3854 89.7067C74.9835 89.2807 74.6444 88.9299 74.3681 88.6292C74.1295 88.3662 73.9914 88.2534 73.9788 88.2534Z" fill="#263238"/>
<path d="M75.9254 82.29L73.7403 37.7903C72.3588 23.859 79.3288 11.4437 93.3191 10.4414L94.6126 10.4289C107.686 10.2535 118.7 20.1257 119.918 33.1173C121.048 45.1944 122.154 58.5618 122.154 65.0514C122.166 78.4815 108.716 80.7491 108.716 80.7491C108.691 80.7491 109.08 88.9049 109.294 92.8387L106.48 103.087L75.9254 82.29Z" fill="#FFBF9D"/>
<path d="M108.716 80.7867C108.716 80.7867 100.239 81.388 91.1213 75.8381C91.1213 75.8381 95.4665 85.8856 108.892 84.495L108.716 80.7867Z" fill="#FF9A6C"/>
<path d="M115.924 45.3948C115.975 46.4096 115.158 47.2865 114.091 47.3492C113.036 47.4244 112.132 46.6601 112.082 45.6454C112.031 44.6306 112.848 43.7536 113.903 43.6784C114.97 43.6158 115.874 44.38 115.924 45.3948Z" fill="#263238"/>
<path d="M117.118 38.6296C116.879 38.8802 115.41 37.8278 113.337 37.8529C111.265 37.8529 109.771 38.9428 109.532 38.6923C109.419 38.5795 109.658 38.1285 110.311 37.6399C110.951 37.1513 112.056 36.6752 113.35 36.6627C114.644 36.6502 115.724 37.1137 116.364 37.5898C117.017 38.0659 117.243 38.5169 117.118 38.6296Z" fill="#263238"/>
<path d="M97.8778 45.7957C97.928 46.8105 97.1117 47.6874 96.0442 47.7501C94.9893 47.8252 94.0851 47.061 94.0349 46.0463C93.9846 45.0315 94.8009 44.1545 95.8684 44.0919C96.9233 44.0167 97.8275 44.7809 97.8778 45.7957Z" fill="#263238"/>
<path d="M96.848 39.3688C96.6094 39.6193 95.1401 38.567 93.0679 38.592C90.9957 38.592 89.5013 39.682 89.2626 39.4314C89.1496 39.3187 89.3882 38.8677 90.0413 38.3791C90.6818 37.8905 91.7869 37.4144 93.0805 37.4019C94.374 37.3894 95.454 37.8529 96.0945 38.3289C96.735 38.805 96.9611 39.256 96.848 39.3688Z" fill="#263238"/>
<path d="M104.471 55.1417C104.459 55.0289 105.739 54.7909 107.824 54.4902C108.352 54.4276 108.854 54.3148 108.929 53.9515C109.055 53.5631 108.816 52.9994 108.553 52.398C108.038 51.1327 107.498 49.8047 106.933 48.4016C104.685 42.7138 103.052 38.0408 103.291 37.9531C103.517 37.8654 105.526 42.4006 107.774 48.0884C108.314 49.4915 108.829 50.832 109.319 52.1099C109.532 52.7112 109.884 53.3877 109.62 54.177C109.482 54.5779 109.093 54.866 108.766 54.9537C108.427 55.0665 108.126 55.0665 107.874 55.0916C105.79 55.2294 104.484 55.2544 104.471 55.1417Z" fill="#263238"/>
<path d="M97.4257 32.9043C97.1494 33.4305 95.14 32.9043 92.6911 32.8918C90.2422 32.8166 88.2077 33.2801 87.9565 32.7289C87.8435 32.4658 88.2454 31.9898 89.1119 31.5513C89.9534 31.1128 91.272 30.762 92.7288 30.7871C94.1982 30.8121 95.4917 31.213 96.3205 31.6891C97.162 32.1526 97.5513 32.6537 97.4257 32.9043Z" fill="#263238"/>
<path d="M117.143 32.5535C116.728 33.0296 115.033 32.5911 112.998 32.6287C110.976 32.6036 109.268 33.0421 108.854 32.566C108.678 32.328 108.929 31.8519 109.67 31.3884C110.399 30.9249 111.617 30.524 113.011 30.524C114.405 30.524 115.623 30.9123 116.339 31.3759C117.08 31.8519 117.318 32.328 117.143 32.5535Z" fill="#263238"/>
<path d="M74.9459 47.274C74.7198 47.1738 65.6525 44.6682 66.0669 53.8387C66.4814 63.0218 75.6366 60.7167 75.6366 60.441C75.6491 60.1905 74.9459 47.274 74.9459 47.274Z" fill="#FFBF9D"/>
<path d="M72.6727 57.0961C72.6351 57.071 72.522 57.2088 72.2583 57.3466C71.9946 57.4844 71.555 57.5846 71.0652 57.4218C70.0731 57.1086 69.194 55.6052 69.0684 53.9515C69.0056 53.1121 69.1438 52.3103 69.4201 51.6463C69.6712 50.9573 70.0857 50.4687 70.5754 50.3685C71.0527 50.2306 71.4169 50.5063 71.5425 50.7694C71.6806 51.0199 71.6304 51.2079 71.6806 51.2204C71.7057 51.2454 71.869 51.0575 71.7811 50.6817C71.7308 50.5063 71.6178 50.2933 71.3918 50.1179C71.1657 49.9425 70.8392 49.8673 70.5001 49.9174C69.7968 49.9926 69.1815 50.6817 68.8926 51.4208C68.5661 52.16 68.3777 53.062 68.4531 54.0016C68.5912 55.8432 69.621 57.5345 70.9648 57.8603C71.6178 57.9981 72.1453 57.7851 72.4216 57.5471C72.6727 57.3216 72.7104 57.1086 72.6727 57.0961Z" fill="#FF9A6C"/>
<path d="M137.814 19.5869C137.638 19.0482 137.236 18.6223 136.734 18.3592C135.654 17.7829 134.436 17.9207 133.268 17.9458C130.342 18.0209 127.416 17.407 124.753 16.1918C125.645 15.6907 126.461 15.1019 127.152 14.3502C128.571 12.8092 129.337 10.5041 128.571 8.54969C128.433 8.18637 128.194 7.79799 127.817 7.69777C127.215 7.5349 126.712 8.14878 126.323 8.62485C125.017 10.2159 123.786 10.9175 121.727 10.8047C120.446 10.7296 119.215 10.5041 118.185 9.92776C118.147 9.89018 118.11 9.84008 118.059 9.8025C117.557 9.32643 117.067 8.87541 116.59 8.44946C112.986 5.1671 109.896 2.92456 106.782 1.82209C102.211 0.205962 94.6628 -0.194939 90.0287 1.23326C85.3946 2.66147 81.3507 6.63288 80.9112 11.4437C78.186 9.33895 74.2426 9.52686 71.1029 10.9425L71.015 10.93C67.5112 12.3457 65.64 16.1918 64.7483 19.8626C64.6981 20.063 64.6604 20.2634 64.6101 20.4639C63.4924 22.4183 61.9226 24.1221 60.0137 25.3373C59.6746 25.5503 59.2979 25.8134 59.2728 26.2143C59.2476 26.6027 59.5993 26.9159 59.9258 27.1288C60.8049 27.7051 61.8221 28.0559 62.8645 28.2062C62.5757 29.0832 62.224 29.9351 61.7845 30.7495C61.4077 31.451 60.9682 32.2779 61.3449 32.9669C61.6463 33.5056 62.3496 33.6936 62.9524 33.5808C63.5552 33.4681 64.0701 33.1047 64.585 32.7665C64.2334 33.7311 63.8692 34.6958 63.5176 35.6605C64.8111 35.8233 66.1423 35.673 67.3856 35.2345C68.2898 38.592 69.1312 44.8436 70.0982 47.1112C72.5472 47.0485 73.1249 46.7604 74.3807 47.1112C76.0008 47.5747 75.511 50.406 77.5455 49.5165C78.5878 49.0655 80.0321 45.0064 80.346 43.9165C82.3805 36.7003 82.8326 29.0331 81.6647 21.629C83.0712 20.0003 84.8043 18.6348 86.7132 17.6451L86.5625 17.7954C90.2673 16.3296 94.4744 14.8638 98.1164 16.48C100.942 17.7328 102.7 20.5265 104.86 22.719C108.967 26.8908 113.513 29.008 119.378 29.008C120.081 33.0421 120.521 39.6569 120.885 43.4279L123.799 35.7231V35.7482C124.037 35.2972 124.238 34.8336 124.427 34.3826L124.489 34.2448V34.2323C124.791 33.4931 125.08 32.7665 125.469 32.0399C125.482 32.0524 125.494 32.0649 125.507 32.0649C127.642 33.7813 130.543 30.8873 128.835 28.7575C128.496 28.3315 128.094 27.9557 127.642 27.655C128.621 28.4944 130.04 28.8577 131.246 28.4192C132.464 27.9933 133.368 26.7029 133.205 25.425C133.092 24.5606 132.439 23.7964 131.623 23.4832C133.293 23.5458 134.963 23.1073 136.382 22.2178C137.299 21.6916 138.191 20.752 137.814 19.5869Z" fill="#263238"/>
<path d="M85.2188 12.8092C85.2439 12.8468 84.6662 13.1851 83.9252 14.0996C83.1843 15.0016 82.3805 16.5677 82.054 18.6473C81.8908 19.6872 81.8028 20.8397 81.8531 22.08C81.9033 23.3203 82.054 24.6358 82.2173 26.0264C82.368 27.417 82.5312 28.8953 82.5061 30.4237C82.4936 31.1879 82.4308 31.9772 82.3052 32.7665C82.167 33.5432 82.0038 34.3826 81.4512 35.0591C81.0117 35.6104 80.2456 35.886 79.58 35.7732C78.9018 35.6855 78.2864 35.3473 77.8343 34.8837C76.9301 33.9065 76.6538 32.6412 76.3901 31.5262L76.6789 31.5513C76.2645 32.5786 75.825 33.6059 75.1594 34.4327C74.5063 35.2721 73.5644 35.8359 72.5974 35.9737C72.1202 36.0363 71.6178 35.9862 71.2034 35.7858C70.7764 35.5978 70.4499 35.2596 70.2238 34.8963C70.0103 34.533 69.8848 34.1195 69.8848 33.7186C69.8848 33.3177 70.0355 32.9293 70.2741 32.6537L70.4248 32.779C69.4327 34.0068 68.3652 34.6833 67.6242 35.0717C67.2475 35.2596 66.9461 35.3849 66.7451 35.46C66.5442 35.5352 66.4312 35.5602 66.4312 35.5477C66.4312 35.5352 66.5316 35.4976 66.7326 35.4099C66.9335 35.3222 67.2223 35.1844 67.5865 34.984C68.3024 34.5831 69.3447 33.8815 70.2866 32.6663L70.4373 32.7915C70.0103 33.2927 70.0103 34.1321 70.4373 34.796C70.6508 35.1218 70.9397 35.4224 71.329 35.5853C71.7058 35.7482 72.1579 35.7983 72.5974 35.7356C73.4891 35.6104 74.3556 35.0717 74.971 34.2824C75.5989 33.4931 76.0133 32.4909 76.4278 31.4636L76.6036 31.0251L76.7166 31.4886C76.9804 32.6036 77.2692 33.8188 78.0981 34.6958C78.5125 35.1218 79.0776 35.4099 79.6679 35.4976C80.2581 35.5853 80.8735 35.3598 81.2628 34.8837C81.7401 34.2949 81.9159 33.4931 82.054 32.7414C82.1796 31.9772 82.2424 31.213 82.255 30.4488C82.2801 28.9329 82.1294 27.4796 81.9787 26.089C81.828 24.6984 81.6898 23.3704 81.6521 22.1176C81.6145 20.8648 81.7024 19.6872 81.8908 18.6473C82.2424 16.5301 83.1089 14.9515 83.8876 14.062C84.616 13.1224 85.2188 12.8092 85.2188 12.8092Z" fill="#455A64"/>
<path d="M127.441 24.097C127.441 24.097 127.403 24.1346 127.34 24.1973C127.252 24.2724 127.139 24.3476 127.014 24.4604C126.876 24.5731 126.687 24.7109 126.461 24.8487C126.235 24.9865 125.971 25.1619 125.657 25.3123C124.427 25.9637 122.455 26.6277 119.931 26.5901C117.444 26.5526 114.417 25.8134 111.667 23.9467C108.892 22.1301 106.405 19.3865 104.333 16.2169C103.278 14.6258 102.411 12.9972 101.47 11.4938C100.528 9.99041 99.4979 8.61232 98.2797 7.5349C97.0741 6.45748 95.6926 5.68075 94.2986 5.35502C93.5954 5.17963 92.9046 5.16709 92.239 5.20467C91.5734 5.26731 90.958 5.43019 90.3804 5.64317C89.2375 6.08165 88.3207 6.75817 87.6426 7.44721C86.9519 8.13626 86.5123 8.86288 86.2109 9.47676C85.6458 10.7421 85.6458 11.5314 85.6081 11.5188C85.6081 11.5188 85.6081 11.4687 85.6081 11.381C85.6207 11.2683 85.6332 11.1305 85.6583 10.9676C85.7086 10.6043 85.8467 10.0781 86.1104 9.42666C86.3993 8.78772 86.8388 8.04855 87.5296 7.32193C88.2203 6.60782 89.1371 5.89373 90.305 5.43019C90.8953 5.20468 91.5357 5.02928 92.2265 4.95412C92.9172 4.904 93.6456 4.91653 94.3614 5.09193C95.8182 5.41766 97.2373 6.20693 98.4806 7.3094C99.7365 8.39935 100.779 9.81502 101.733 11.3184C102.688 12.8343 103.567 14.463 104.597 16.029C106.656 19.1735 109.105 21.8921 111.818 23.6836C114.518 25.5252 117.469 26.2895 119.918 26.3521C122.392 26.4147 124.351 25.7883 125.582 25.187C126.838 24.5856 127.416 24.0595 127.441 24.097Z" fill="#455A64"/>
<path d="M128.42 18.1462C128.433 18.1587 128.27 18.284 127.956 18.497C127.642 18.7099 127.164 18.9856 126.562 19.2862C125.946 19.5869 125.193 19.8751 124.326 20.1256C123.46 20.3637 122.48 20.5516 121.45 20.6268C120.408 20.7019 119.416 20.6518 118.524 20.5516C117.632 20.4263 116.841 20.2634 116.188 20.0505C115.535 19.85 115.02 19.6496 114.681 19.4867C114.342 19.3238 114.154 19.2236 114.166 19.1986C114.191 19.1484 114.945 19.4992 116.238 19.8375C116.879 20.0129 117.67 20.1632 118.549 20.2634C119.428 20.3511 120.395 20.3762 121.413 20.3136C122.43 20.2259 123.384 20.0505 124.238 19.8375C125.092 19.612 125.846 19.3489 126.461 19.0733C127.679 18.5596 128.383 18.0961 128.42 18.1462Z" fill="#455A64"/>
<path d="M104.622 61.4182C104.496 61.0925 102.374 62.0446 100.038 60.9171C97.702 59.7896 96.9234 57.4218 96.6094 57.5345C96.4587 57.5596 96.421 58.2236 96.8354 59.1882C97.2248 60.1404 98.1415 61.3681 99.5732 62.0572C101.005 62.7462 102.449 62.671 103.353 62.3453C104.283 62.0321 104.697 61.5561 104.622 61.4182Z" fill="#263238"/>
<path d="M123.246 258.322C123.246 257.671 116.037 210.954 113.249 204.99C111.039 200.267 93.3441 196.584 74.3932 188.954C53.9855 180.736 30.3252 180.172 30.3252 180.172L60.2774 249.139L123.246 258.322Z" fill="#FF725E"/>
<path d="M105.438 163.898L132.652 170.049C132.652 170.049 139.359 169.611 140.338 169.636C141.318 169.661 153.412 172.68 155.685 173.695C157.958 174.71 160.62 175.324 160.62 175.324L143.478 178.255L128.659 186.023L126.16 185.496L102.424 186.511L105.438 163.898Z" fill="#FFBF9D"/>
<path d="M162.228 179.157C161.801 179.846 160.997 180.26 160.193 180.122C160.03 180.097 159.867 180.047 159.704 179.972C158.586 179.508 158.887 177.178 158.887 177.178L153.449 175.812C153.449 175.812 142.348 182.177 138.681 183.78C124.263 190.082 124.627 181.513 124.627 181.513L132.715 170.563L143.641 162.269C143.641 162.269 142.976 162.758 143.817 161.104C144.658 159.451 147.798 160.365 147.798 160.365C148.363 159.563 150.473 159.438 150.473 159.438L159.289 161.217C161.11 161.58 162.655 162.745 163.509 164.387L166.762 170.651C166.762 170.651 168.382 175.098 167.98 176.063C167.364 177.529 165.807 177.053 165.807 177.053C165.807 177.053 165.129 179.834 164.375 179.859C163.634 179.896 162.228 179.157 162.228 179.157Z" fill="#FFBF9D"/>
<path d="M144.005 169.122C144.005 169.222 145.198 169.21 147.095 169.448C148.979 169.699 151.578 170.262 154.241 171.415C155.572 171.991 156.79 172.655 157.845 173.332C158.875 174.033 159.955 174.622 160.231 175.424C160.369 175.825 160.256 176.201 160.043 176.476C159.829 176.752 159.553 176.915 159.327 176.99C158.837 177.14 158.548 176.99 158.536 177.04C158.511 177.053 158.787 177.303 159.377 177.203C159.666 177.153 160.005 176.99 160.281 176.689C160.57 176.401 160.771 175.85 160.608 175.324C160.457 174.785 160.055 174.346 159.603 173.983C159.151 173.62 158.661 173.257 158.121 172.906C157.054 172.192 155.81 171.503 154.454 170.901C151.729 169.711 149.054 169.21 147.12 169.047C145.198 168.909 144.005 169.06 144.005 169.122Z" fill="#FF9A6C"/>
<path d="M142.9 174.735C142.9 174.898 146.53 175.061 150.963 175.699C155.396 176.326 158.925 177.178 158.975 177.015C159 176.94 158.134 176.639 156.702 176.251C155.27 175.875 153.274 175.449 151.038 175.123C148.803 174.81 146.768 174.66 145.286 174.622C143.817 174.597 142.9 174.66 142.9 174.735Z" fill="#FF9A6C"/>
<path d="M162.203 178.919C162.228 178.919 162.303 178.593 162.391 177.98C162.479 177.378 162.592 176.489 162.617 175.386C162.63 174.835 162.617 174.221 162.517 173.57C162.429 172.906 162.178 172.204 161.801 171.565C161.098 170.287 160.093 168.934 158.762 167.869C157.431 166.817 156.087 165.915 154.693 165.364C153.311 164.813 151.993 164.6 150.9 164.449C149.807 164.311 148.916 164.261 148.3 164.236C147.685 164.211 147.346 164.211 147.346 164.249C147.333 164.337 148.69 164.499 150.85 164.838C151.917 165.026 153.198 165.289 154.504 165.84C155.798 166.379 157.129 167.281 158.41 168.308C159.704 169.335 160.645 170.576 161.361 171.816C162.127 173.006 162.178 174.309 162.215 175.386C162.24 177.554 162.077 178.919 162.203 178.919Z" fill="#FF9A6C"/>
<path d="M150.712 161.718C150.699 161.806 152.03 161.956 154.14 162.37C156.162 162.858 159.427 163.284 161.047 166.253C162.856 168.984 164.363 171.553 164.941 173.595C165.568 175.637 165.38 176.99 165.506 176.99C165.531 176.99 165.619 176.664 165.644 176.05C165.669 175.436 165.619 174.547 165.342 173.482C164.84 171.327 163.346 168.671 161.525 165.928C161.06 165.239 160.558 164.575 159.942 164.036C159.339 163.485 158.611 163.134 157.933 162.871C156.564 162.357 155.283 162.132 154.215 161.956C152.068 161.655 150.724 161.655 150.712 161.718Z" fill="#FF9A6C"/>
<path d="M145.186 180.924C145.198 180.936 145.387 180.811 145.751 180.56C146.153 180.285 146.68 179.934 147.346 179.495C148.753 178.593 150.825 177.316 153.537 175.975L153.412 175.988C155.032 176.401 156.865 176.877 158.837 177.391L158.674 177.14C158.624 177.591 158.611 178.03 158.661 178.493C158.711 178.944 158.812 179.445 159.176 179.871C159.365 180.084 159.641 180.222 159.879 180.272C160.118 180.36 160.382 180.398 160.645 180.385C161.173 180.36 161.7 180.122 162.077 179.746C162.178 179.658 162.266 179.546 162.341 179.445L162.404 179.358L162.429 179.32L162.441 179.295C162.517 179.27 161.801 179.47 162.102 179.383H162.115L162.278 179.47C162.504 179.583 162.73 179.683 162.969 179.784C163.207 179.884 163.446 179.972 163.71 180.034C163.835 180.072 163.974 180.097 164.112 180.109C164.25 180.122 164.401 180.147 164.627 180.059C164.953 179.859 165.091 179.608 165.229 179.383C165.355 179.145 165.468 178.894 165.568 178.656C165.769 178.155 165.92 177.654 166.058 177.128L165.719 177.328C166.422 177.516 167.276 177.416 167.829 176.802C168.08 176.514 168.294 176.163 168.306 175.725C168.319 175.336 168.269 174.998 168.206 174.647C167.929 173.269 167.502 171.929 167.025 170.563V170.55L167.013 170.538C166.46 169.473 165.87 168.346 165.28 167.193C164.915 166.479 164.539 165.777 164.174 165.076C163.81 164.399 163.484 163.635 162.944 163.009C162.416 162.382 161.776 161.869 161.06 161.518C160.357 161.142 159.54 160.992 158.824 160.854C155.898 160.277 153.123 159.714 150.511 159.2L150.473 159.187H150.448C149.92 159.225 149.431 159.313 148.941 159.451C148.464 159.601 147.961 159.764 147.585 160.24L147.899 160.165C146.994 159.701 145.902 159.601 145.023 160.077C144.144 160.553 143.691 161.392 143.415 162.207L143.49 162.094C140.351 164.462 137.789 166.391 135.955 167.769C135.114 168.421 134.436 168.947 133.921 169.335C133.456 169.699 133.23 169.899 133.243 169.912C133.255 169.924 133.519 169.761 133.996 169.423C134.524 169.047 135.227 168.558 136.093 167.945C137.952 166.604 140.552 164.725 143.729 162.42L143.779 162.382L143.804 162.307C144.056 161.593 144.495 160.829 145.224 160.465C145.927 160.077 146.881 160.165 147.647 160.566L147.836 160.666L147.961 160.503C148.175 160.227 148.614 160.039 149.054 159.914C149.493 159.789 149.983 159.714 150.46 159.676H150.398C152.997 160.202 155.785 160.779 158.699 161.38C159.44 161.53 160.143 161.656 160.784 162.006C161.424 162.332 162.014 162.796 162.492 163.359C162.969 163.911 163.27 164.625 163.647 165.326C164.011 166.028 164.375 166.729 164.752 167.443C165.342 168.584 165.933 169.724 166.485 170.788L166.473 170.751C166.937 172.079 167.377 173.432 167.641 174.747C167.703 175.073 167.754 175.411 167.741 175.699C167.754 175.95 167.603 176.213 167.415 176.426C167.05 176.852 166.397 176.94 165.87 176.802L165.594 176.739L165.531 177.002C165.405 177.504 165.254 177.992 165.079 178.468C164.903 178.907 164.664 179.445 164.4 179.608C164.388 179.608 164.287 179.633 164.174 179.608C164.061 179.596 163.948 179.571 163.835 179.546C163.609 179.483 163.383 179.408 163.157 179.32C162.931 179.232 162.718 179.132 162.504 179.032L162.341 178.957H162.328C162.63 178.869 161.914 179.07 161.989 179.045L161.977 179.057L161.952 179.095L161.901 179.157C161.839 179.245 161.776 179.32 161.688 179.395C161.386 179.696 160.985 179.884 160.57 179.909C160.369 179.921 160.168 179.896 159.967 179.821C159.754 179.771 159.603 179.696 159.478 179.571C159 178.982 159.013 178.005 159.076 177.228L159.088 177.027L158.9 176.977C156.916 176.489 155.082 176.05 153.449 175.649L153.374 175.637L153.311 175.662C150.586 177.065 148.539 178.393 147.17 179.358C146.492 179.846 145.965 180.235 145.625 180.51C145.349 180.761 145.173 180.911 145.186 180.924Z" fill="#FF9A6C"/>
<path d="M112.22 164.712L76.1891 157.496L70.2238 129.245L57.8285 94.5926C49.3012 98.1005 41.3767 105.642 41.8916 115.427C42.6577 129.934 46.0737 161.067 46.8648 169.085C47.8946 179.546 51.5869 186.824 66.8958 188.954C82.2675 191.097 108.188 190.658 108.188 190.658C108.188 190.658 110.738 193.452 113.965 191.948C118.122 190.007 117.771 186.073 117.771 186.073L118.097 166.366C118.085 166.379 114.643 162.294 112.22 164.712Z" fill="#455A64"/>
<path d="M59.6369 96.9604C59.5741 97.0231 60.7044 98.1005 62.224 100.067C62.9775 101.057 63.8315 102.272 64.6729 103.688C65.5017 105.104 66.3306 106.72 67.0716 108.461C68.5284 111.969 69.3321 115.339 69.7214 117.795C70.1359 120.25 70.2112 121.804 70.3242 121.791C70.3619 121.791 70.3619 121.403 70.3493 120.701C70.3493 120 70.2614 118.985 70.1107 117.732C69.8093 115.239 69.0558 111.806 67.5739 108.248C66.8204 106.482 65.979 104.853 65.0999 103.425C64.2208 102.009 63.3166 100.807 62.5254 99.8294C61.7091 98.8647 60.9932 98.1381 60.4909 97.6495C59.9634 97.1734 59.662 96.9354 59.6369 96.9604Z" fill="#263238"/>
<path d="M63.2161 170.125C63.3166 170.15 63.5426 169.097 64.2333 167.531C64.9241 165.965 66.1799 163.923 68.0763 162.132C69.9726 160.34 72.0825 159.187 73.69 158.586C75.2974 157.972 76.3649 157.809 76.3398 157.709C76.3398 157.672 76.0635 157.684 75.5737 157.747C75.084 157.797 74.3932 157.96 73.5518 158.223C72.7104 158.486 71.7434 158.912 70.7261 159.476C69.7214 160.064 68.6791 160.816 67.687 161.731C66.7199 162.658 65.9162 163.673 65.2631 164.637C64.6352 165.614 64.158 166.554 63.8566 167.381C63.5426 168.195 63.3542 168.884 63.2789 169.373C63.2035 169.849 63.1784 170.125 63.2161 170.125Z" fill="#263238"/>
<path d="M132.05 188.002C132.251 189.092 133.268 189.831 134.373 189.681L177.537 183.868L214.509 180.21L215.074 177.002L179.848 179.157L133.808 185.559C132.627 185.735 131.836 186.837 132.05 188.002Z" fill="#E0E0E0"/>
<path d="M204.06 121.891L179.044 178.581C178.039 180.836 179.508 183.505 181.656 183.342L225.686 179.107C226.666 179.032 227.545 178.355 227.997 177.316L253.039 121.102C253.541 119.95 252.851 118.584 251.758 118.559L206.597 120.112C205.53 120.087 204.55 120.776 204.06 121.891Z" fill="#E0E0E0"/>
<path d="M204.06 121.891C204.06 121.891 204.111 121.691 204.324 121.353C204.538 121.027 204.914 120.526 205.643 120.225C206.007 120.062 206.459 120.037 206.924 120.025C207.401 120 207.916 119.975 208.469 119.962C209.586 119.912 210.88 119.862 212.324 119.799C218.151 119.574 226.54 119.248 236.889 118.847C239.476 118.747 242.201 118.647 245.027 118.546C246.446 118.496 247.89 118.446 249.359 118.383C250.1 118.358 250.841 118.333 251.582 118.308C251.959 118.258 252.486 118.409 252.8 118.722C253.127 119.022 253.34 119.423 253.428 119.837C253.516 120.263 253.491 120.701 253.328 121.115L252.863 122.192C252.549 122.894 252.235 123.608 251.909 124.334C251.268 125.775 250.628 127.228 249.962 128.719C248.643 131.688 247.287 134.733 245.906 137.865C243.13 144.116 240.204 150.693 237.177 157.496C235.658 160.904 234.126 164.362 232.556 167.882C231.777 169.636 230.986 171.415 230.195 173.194C229.793 174.083 229.404 174.973 229.002 175.875L228.399 177.228C228.211 177.679 227.947 178.193 227.558 178.568C227.181 178.957 226.678 179.257 226.138 179.395C225.561 179.508 225.134 179.508 224.619 179.571C223.639 179.671 222.66 179.759 221.693 179.846C219.746 180.034 217.812 180.222 215.891 180.398C212.048 180.761 208.268 181.124 204.55 181.488C197.116 182.202 189.945 182.878 183.125 183.53L181.844 183.655C181.417 183.692 180.89 183.68 180.463 183.492C179.571 183.129 178.943 182.352 178.655 181.513C178.341 180.661 178.341 179.721 178.617 178.882C178.931 178.055 179.27 177.366 179.596 176.602C180.915 173.632 182.183 170.763 183.427 167.97C185.901 162.407 188.199 157.221 190.296 152.485C194.503 143.051 197.919 135.409 200.293 130.085C201.473 127.466 202.403 125.424 203.043 124.009C203.357 123.332 203.596 122.818 203.772 122.43C203.96 122.067 204.06 121.891 204.06 121.891C204.06 121.891 203.998 122.079 203.847 122.443C203.684 122.831 203.458 123.357 203.181 124.046C202.566 125.474 201.687 127.529 200.544 130.172C198.221 135.509 194.868 143.177 190.736 152.648C188.651 157.396 186.378 162.583 183.929 168.158C182.711 170.951 181.442 173.833 180.136 176.802C179.822 177.541 179.446 178.305 179.182 179.032C178.943 179.746 178.956 180.56 179.22 181.275C179.471 182.001 180.011 182.628 180.702 182.903C181.053 183.053 181.405 183.066 181.819 183.028L183.1 182.903C189.932 182.239 197.103 181.55 204.525 180.823C208.242 180.46 212.023 180.097 215.866 179.734C217.787 179.546 219.721 179.358 221.668 179.17C222.635 179.082 223.614 178.982 224.594 178.882C225.058 178.832 225.624 178.806 226.013 178.719C226.427 178.619 226.817 178.381 227.118 178.067C227.432 177.742 227.633 177.378 227.834 176.915L228.437 175.562C228.839 174.66 229.24 173.77 229.63 172.881C230.421 171.102 231.212 169.335 231.991 167.569C233.561 164.061 235.105 160.591 236.612 157.196C239.651 150.393 242.578 143.828 245.366 137.577C246.76 134.457 248.129 131.4 249.447 128.444C250.113 126.965 250.766 125.499 251.406 124.071C251.733 123.357 252.047 122.643 252.361 121.929L252.825 120.889C252.951 120.576 252.976 120.238 252.901 119.912C252.763 119.26 252.26 118.722 251.582 118.809C250.829 118.835 250.088 118.86 249.359 118.885C247.89 118.935 246.446 118.972 245.027 119.022C242.201 119.11 239.476 119.198 236.889 119.286C226.54 119.599 218.151 119.849 212.324 120.025C210.88 120.062 209.586 120.1 208.469 120.125C207.916 120.137 207.401 120.15 206.924 120.162C206.447 120.162 206.045 120.175 205.693 120.325C204.99 120.601 204.601 121.064 204.374 121.365C204.148 121.703 204.073 121.891 204.06 121.891Z" fill="#263238"/>
<path d="M208.669 120.363C208.82 120.451 202.78 134.595 195.169 151.934C187.559 169.285 181.267 183.266 181.103 183.166C180.953 183.079 186.993 168.934 194.604 151.595C202.214 134.257 208.506 120.275 208.669 120.363Z" fill="#263238"/>
<path d="M221.649 152.448C223.003 149.665 222.982 146.868 221.603 146.201C220.224 145.533 218.009 147.248 216.655 150.03C215.301 152.813 215.322 155.61 216.701 156.278C218.08 156.945 220.296 155.231 221.649 152.448Z" fill="white"/>
<path d="M72.6351 133.693C72.6476 133.693 72.6728 133.831 72.723 134.094C72.7732 134.394 72.8486 134.783 72.9239 135.296C73.0997 136.386 73.3509 137.94 73.6774 139.957C74.3179 144.066 75.2347 150.004 76.3901 157.471L76.2268 157.308C85.8467 159.213 98.1541 161.643 112.283 164.437L112.019 164.512C112.446 164.124 112.986 163.773 113.614 163.685C114.242 163.61 114.87 163.748 115.422 163.986C116.552 164.474 117.482 165.276 118.311 166.191L118.386 166.266V166.379C118.285 172.618 118.185 179.232 118.085 186.085V186.048C118.135 187.238 117.833 188.378 117.256 189.418C116.665 190.445 115.786 191.322 114.731 191.898C113.714 192.512 112.421 192.876 111.177 192.637C109.934 192.399 108.841 191.773 107.937 190.871L108.188 190.971C104.132 191.021 99.8369 191.021 95.4791 190.959C87.6049 190.846 79.919 190.558 72.5095 189.894C68.8173 189.543 65.1627 189.155 61.6714 188.228C58.2053 187.301 54.8773 185.785 52.3404 183.404C51.0594 182.214 50.0673 180.798 49.251 179.333C48.4473 177.842 47.9324 176.263 47.5054 174.685C46.7142 171.515 46.5384 168.358 46.2118 165.364C45.609 159.35 45.0439 153.738 44.529 148.614C43.5243 138.378 42.7959 130.072 42.3815 124.334C42.168 121.465 42.0424 119.235 41.967 117.719C41.9419 116.98 41.9168 116.417 41.8917 116.003C41.8791 115.615 41.8917 115.414 41.8917 115.414C41.8917 115.414 41.9294 115.615 41.9545 116.003C41.9922 116.417 42.0298 116.993 42.0926 117.719C42.2182 119.26 42.4066 121.478 42.6326 124.322C43.1224 130.047 43.9262 138.341 44.9811 148.576C45.5211 153.7 46.1114 159.3 46.7393 165.314C47.0784 168.32 47.2668 171.452 48.0454 174.547C48.4724 176.075 48.9873 177.616 49.7534 179.057C50.5445 180.473 51.5116 181.838 52.7297 182.978C55.1787 185.258 58.4062 186.724 61.8096 187.639C65.2255 188.541 68.8549 188.929 72.5472 189.267C79.9316 189.919 87.6049 190.195 95.4666 190.32C99.8118 190.382 104.107 190.395 108.151 190.345H108.289L108.402 190.458C109.168 191.234 110.21 191.823 111.278 192.024C112.358 192.224 113.438 191.936 114.392 191.372C115.359 190.833 116.138 190.044 116.678 189.13C117.193 188.215 117.469 187.125 117.432 186.123V186.085C117.557 179.232 117.67 172.618 117.783 166.379L117.858 166.579C117.105 165.74 116.188 164.95 115.196 164.537C114.706 164.324 114.179 164.224 113.689 164.274C113.199 164.349 112.785 164.612 112.421 164.938L112.308 165.026L112.169 165.001C98.0536 162.144 85.7588 159.651 76.1515 157.697L76.0133 157.672L75.9882 157.534C74.9082 150.054 74.0542 144.104 73.4639 139.994C73.1877 137.977 72.9742 136.411 72.8235 135.321C72.7607 134.808 72.7104 134.407 72.6728 134.119C72.6351 133.843 72.6225 133.693 72.6351 133.693Z" fill="#263238"/>
</svg>
